<svg width="45" height="45" viewBox="0 0 45 45" fill="none" xmlns="http://www.w3.org/2000/svg">
<path d="M43.6745 30.9946L13.7144 1.00308C13.4226 0.710941 13.076 0.479181 12.6946 0.321057C12.3132 0.162932 11.9043 0.081543 11.4914 0.081543C11.0784 0.081543 10.6696 0.162932 10.2881 0.321057C9.90667 0.479181 9.56013 0.710941 9.26831 1.00308L1.5387 8.7484C0.953482 9.33711 0.625 10.1335 0.625 10.9636C0.625 11.7937 0.953482 12.5901 1.5387 13.1788L31.4988 43.1703C31.7924 43.4615 32.1406 43.6919 32.5234 43.8483C32.9062 44.0046 33.3162 44.0839 33.7297 44.0815C34.5594 44.0821 35.3558 43.7546 35.9449 43.1703L43.6745 35.425C44.2597 34.8362 44.5882 34.0399 44.5882 33.2098C44.5882 32.3797 44.2597 31.5833 43.6745 30.9946ZM33.7297 40.9394L3.7539 10.9636L11.4835 3.23399L17.4378 9.18829L13.9029 12.6603L16.1181 14.8755L19.653 11.4035L26.1415 17.892L22.6066 21.4268L24.8375 23.6577L28.3724 20.1229L34.8608 26.6113L31.326 30.1462L33.604 32.3614L37.1389 28.8265L41.4593 33.2098L33.7297 40.9394Z" fill="white"/>
<path d="M41.8034 2.2571C41.064 1.54613 40.289 1.0058 39.4785 0.636096C38.668 0.266394 37.822 0.081543 36.9404 0.081543C34.9781 0.081543 33.2149 0.863605 31.6508 2.42773C31.1389 2.91119 22.1381 11.912 4.64832 29.4302C4.47769 29.6008 4.34971 29.7999 4.2644 30.0274C4.15064 30.5109 2.95622 34.5065 0.681129 42.0143C0.554877 42.4941 0.641612 42.9178 0.941334 43.2854C1.01845 43.38 1.08386 43.4954 1.19302 43.55C1.2499 43.5784 1.29967 43.6069 1.34233 43.6353C1.38498 43.6637 1.43475 43.6922 1.49163 43.7206C1.54851 43.7491 1.60538 43.7704 1.66226 43.7846L1.83289 43.8273L2.00352 43.8486C2.29573 43.8486 2.57068 43.7173 2.84843 43.6265C8.61341 41.7428 12.3985 40.537 14.2037 40.0094C14.3174 39.9809 14.4241 39.9383 14.5236 39.8814C14.6232 39.8245 14.7156 39.7534 14.8009 39.6681C18.0429 36.4545 23.2045 31.3427 30.2857 24.3326C37.367 17.3225 41.2488 13.4619 41.9314 12.751C43.6092 11.0162 44.434 9.22456 44.4055 7.37605C44.3486 5.55598 43.4813 3.84966 41.8034 2.2571ZM31.2242 6.77884C32.6461 7.1201 33.9828 7.91638 35.2341 9.16768C35.746 9.67958 36.1796 10.2626 36.5351 10.9167C36.8906 11.5707 37.1181 12.0613 37.2177 12.3884C37.3172 12.7154 37.3954 13.0211 37.4523 13.3055C33.6131 17.1163 26.091 24.5672 14.8862 35.6583C14.3175 34.3501 13.5354 33.1841 12.54 32.1603C11.3456 30.9659 10.009 30.0701 8.53019 29.4729L8.57285 29.4302L8.61551 29.3875L8.65816 29.3449V29.3022H8.70082L8.74348 29.2596L8.78614 29.2169V29.1743H8.8288L8.87145 29.1316L8.91411 29.0889V29.0463H8.95677L8.99943 29.0036L9.04208 28.961V28.9183H9.08474L9.1274 28.8757L9.17006 28.833L9.21272 28.7903V28.7477H9.25537L9.29803 28.705L9.34069 28.6624V28.6197H9.38335L9.42601 28.577L9.46866 28.5344L9.51132 28.4917V28.4491H9.55398L9.59664 28.4064L9.6393 28.3638L9.68195 28.3211V28.2784L9.72461 28.2358H9.76727L9.80993 28.1931L9.85259 28.1505L9.89524 28.1078V28.0651L9.9379 28.0225H9.98056L10.0232 27.9798L10.0659 27.9372L10.1085 27.8945V27.8519L10.1512 27.8092H10.1938L10.2365 27.7665L10.2792 27.7239L10.3218 27.6812L10.3645 27.6386V27.5959L10.4071 27.5533H10.4498L10.4925 27.5106L10.5351 27.4679L10.5778 27.4253L10.6204 27.3826L10.6631 27.34V27.2973H10.7057L10.7484 27.2547L10.7911 27.212L10.8337 27.1693L10.8764 27.1267L10.919 27.084L10.9617 27.0414V26.9987L11.0043 26.956H11.047L11.0897 26.9134L11.1323 26.8707L11.175 26.8281L11.2176 26.7854L11.2603 26.7428L11.303 26.7001L11.3456 26.6574V26.6148L11.3883 26.5721H11.4309L11.4736 26.5295L11.5162 26.4868L11.5589 26.4441L11.6016 26.4015L11.6442 26.3588L11.6869 26.3162L11.7295 26.2735L11.7722 26.2309L11.8149 26.1882V26.1455L11.8575 26.1029L11.9002 26.0602H11.9428L11.9855 26.0176L12.0281 25.9749L12.0708 25.9323L12.1135 25.8896L12.1561 25.8469L12.1988 25.8043L12.2414 25.7616L12.2841 25.719L12.3267 25.6763L12.3694 25.6336L12.4121 25.591V25.5483L12.4547 25.5057L12.4974 25.463L12.54 25.4204H12.5827L12.6254 25.3777L12.668 25.335L12.7107 25.2924L12.7533 25.2497L12.796 25.2071L12.8386 25.1644L12.8813 25.1218L12.924 25.0791L12.9666 25.0364L13.0093 24.9938L13.0519 24.9511L13.0946 24.9085L13.1372 24.8658L13.1799 24.8231L13.2226 24.7805L13.2652 24.7378L13.3079 24.6952L13.3505 24.6525L13.3932 24.6099V24.5672L13.4359 24.5245L13.4785 24.4819L13.5212 24.4392L13.5638 24.3966L13.6065 24.3539L13.6491 24.3113L13.6918 24.2686L13.7345 24.2259L13.7771 24.1833H13.8198L13.8624 24.1406L13.9051 24.098L13.9477 24.0553L13.9904 24.0126L14.0331 23.97L14.0757 23.9273L14.1184 23.8847L14.161 23.842L14.2037 23.7994L14.2464 23.7567L14.289 23.714L14.3317 23.6714L14.3743 23.6287L14.417 23.5861L14.4596 23.5434L14.5023 23.5008L14.545 23.4581L14.5876 23.4154L14.6303 23.3728L14.6729 23.3301L14.7156 23.2875L14.7582 23.2448L14.8009 23.2021L14.8436 23.1595L14.9289 23.0742L14.9715 23.0315L15.0142 22.9889L15.0569 22.9462L15.0995 22.9035L15.1422 22.8609L15.1848 22.8182L15.2275 22.7756L15.2701 22.7329L15.3128 22.6903L15.3555 22.6476L15.3981 22.6049L15.4408 22.5623L15.4834 22.477L15.5261 22.4343L15.5687 22.3916L15.6114 22.349L15.6541 22.3063L15.7394 22.2637L15.782 22.221L15.8247 22.1784L15.8674 22.1357L15.91 22.093L15.9527 22.0504L15.9953 22.0077L16.038 21.9651L16.0806 21.9224L16.1233 21.8797L16.166 21.8371L16.2086 21.7518L16.2513 21.7091L16.2939 21.6665L16.3793 21.6238L16.4219 21.5811L16.4646 21.5385L16.5072 21.4958L16.5499 21.4532L16.5925 21.4105L16.6352 21.3679L16.6779 21.3252L16.7205 21.2825L16.7632 21.1972L16.8058 21.1546L16.8485 21.1119L16.9338 21.0692L16.9765 21.0266L17.0191 20.9839L17.0618 20.9413L17.1044 20.8986L17.1471 20.856L17.1898 20.8133L17.2324 20.728L17.2751 20.6853L17.3177 20.6427L17.403 20.6L17.4457 20.5574L17.4884 20.5147L17.531 20.472L17.5737 20.4294L17.6163 20.3867L17.659 20.3441L17.7016 20.2587L17.7443 20.2161L17.8296 20.1734L17.8723 20.1308L17.9149 20.0881L17.9576 20.0455L18.0003 20.0028L18.0429 19.9601L18.0856 19.8748L18.1282 19.8322L18.1709 19.7895L18.2562 19.7469L18.2989 19.7042L18.3415 19.6615L18.3842 19.6189L18.4268 19.5762L18.4695 19.4909L18.5121 19.4482L18.5548 19.4056L18.6401 19.3629L18.6828 19.3203L18.7254 19.2776L18.7681 19.235L18.8108 19.1923L18.8534 19.107L18.8961 19.0643L18.9814 19.0217L19.024 18.979L19.0667 18.9364L19.1094 18.8937L19.152 18.851L19.1947 18.7657L19.2373 18.7231L19.3226 18.6804L19.3653 18.6377L19.408 18.5951L19.4506 18.5524L19.4933 18.5098L19.5359 18.4245L19.5786 18.3818L19.6639 18.3391L19.7066 18.2965L19.7492 18.2538L19.7919 18.2112L19.8345 18.1685L19.8772 18.0832L19.9199 18.0405L20.0052 17.9979L20.0478 17.9552L20.0905 17.9126L20.1331 17.8699L20.1758 17.8272L20.2185 17.7419L20.2611 17.6993L20.3464 17.6566L20.3891 17.614L20.4318 17.5713L20.4744 17.5286L20.5171 17.4433L20.5597 17.4007L20.645 17.358L20.6877 17.3153L20.7304 17.2727L20.773 17.23L20.8157 17.1447L20.8583 17.1021L20.9436 17.0594L20.9863 17.0167L21.029 16.9741L21.0716 16.9314L21.1143 16.8461L21.1569 16.8035L21.2423 16.7608L21.2849 16.7181L21.3276 16.6755L21.3702 16.6328L21.4129 16.5475L21.4555 16.5048L21.5409 16.4622L21.5835 16.4195L21.6262 16.3769L21.6688 16.3342L21.7115 16.2489L21.7542 16.2062L21.8395 16.1636L21.8821 16.1209L21.9248 16.0783L21.9674 16.0356L22.0101 15.9503L22.0528 15.9076L22.1381 15.865L22.1807 15.8223L22.2234 15.7797L22.266 15.737L22.3087 15.6517L22.394 15.609L22.4367 15.5664L22.4793 15.5237L22.522 15.4811L22.5647 15.3957L22.6073 15.3531L22.6926 15.3104L22.7353 15.2678L22.7779 15.2251L22.8206 15.1825L22.8633 15.0971L22.9486 15.0545L22.9912 15.0118L23.0339 14.9692L23.0765 14.9265L23.1192 14.8412L23.1619 14.7985L23.2472 14.7559L23.2898 14.7132L23.3325 14.6706L23.3752 14.6279L23.4178 14.5426L23.5031 14.4999L23.5458 14.4573L23.5884 14.4146L23.6311 14.372L23.6738 14.2866L23.7164 14.244L23.8017 14.2013L23.8444 14.1587L23.887 14.116L23.9297 14.0733L23.9724 13.988L24.0577 13.9454L24.1003 13.9027L24.143 13.8601L24.1857 13.8174L24.2283 13.7321L24.271 13.6894L24.3563 13.6468L24.3989 13.6041L24.4416 13.5615L24.4843 13.5188L24.5269 13.4335L24.6122 13.3908L24.6549 13.3482L24.6975 13.3055L24.7402 13.2628L24.7829 13.1775L24.8255 13.1349L24.9108 13.0922L24.9535 13.0496L24.9962 13.0069L25.0388 12.9642L25.0815 12.8789L25.1668 12.8363L25.2094 12.7936L25.2521 12.751L25.2948 12.7083L25.3374 12.623L25.3801 12.5803L25.4654 12.5377L25.508 12.495L25.5507 12.4523L25.5934 12.4097L25.636 12.3244L25.7213 12.2817L25.764 12.2391L25.8067 12.1964L25.8493 12.1537L25.892 12.0684L25.9346 12.0258L26.0199 11.9831L26.0626 11.9404L26.1053 11.8978L26.1479 11.8551L26.1906 11.7698L26.2332 11.7272L26.3186 11.6845L26.3612 11.6418L26.4039 11.5992L26.4465 11.5565L26.4892 11.4712L26.5745 11.4286L26.6172 11.3859L26.6598 11.3432L26.7025 11.3006L26.7451 11.2153L26.7878 11.1726L26.8731 11.1299L26.9158 11.0873L26.9584 11.0446L27.0011 11.002L27.0437 10.9167L27.0864 10.874L27.1717 10.8313L27.2144 10.7887L27.257 10.746L27.2997 10.7034L27.3423 10.6607L27.385 10.5754L27.4277 10.5327L27.513 10.4901L27.5556 10.4474L27.5983 10.4048L27.6409 10.3621L27.6836 10.2768L27.7263 10.2341L27.8116 10.1915L27.8542 10.1488L27.8969 10.1062L27.9396 10.0635L27.9822 10.0208L28.0249 9.93553L28.0675 9.89287L28.1528 9.85021L28.1955 9.80755L28.2382 9.76489L28.2808 9.72224L28.3235 9.67958L28.3661 9.59426L28.4088 9.55161L28.4941 9.50895L28.5368 9.46629L28.5794 9.42363L28.6221 9.38097L28.6647 9.33832L28.7074 9.253L28.7501 9.21034L28.7927 9.16768L28.878 9.12503L28.9207 9.08237L28.9633 9.03971L29.006 8.99705L29.0487 8.95439L29.0913 8.86908L29.134 8.82642L29.1766 8.78376L29.2619 8.7411L29.3046 8.69845L29.3473 8.65579L29.3899 8.61313L29.4326 8.57047L29.4752 8.52781L29.5179 8.4425L29.5606 8.39984L29.6032 8.35718L29.6459 8.31452L29.7312 8.27187L29.7738 8.22921L29.8165 8.18655L29.8592 8.14389L29.9018 8.10124L29.9445 8.05858L29.9871 8.01592L30.0298 7.97326L30.0724 7.88795L30.1151 7.84529L30.1578 7.80263L30.2004 7.75997L30.2857 7.71731L30.3284 7.67466L30.3711 7.632L30.4137 7.58934L30.4564 7.54668L30.499 7.50402L30.5417 7.46137L30.5843 7.41871L30.627 7.37605L30.6697 7.33339L30.7123 7.29073L30.755 7.24808L30.7976 7.20542L30.8403 7.16276L30.8829 7.1201L30.9256 7.07744L30.9683 6.99213L31.0109 6.94947L31.0536 6.90681L31.0962 6.86416L31.1389 6.8215L31.2242 6.77884ZM6.65324 31.7764C8.04673 32.1461 9.35491 32.9424 10.5778 34.1652C11.5447 35.1321 12.2272 36.2697 12.6254 37.5779C12.0566 37.7769 10.6986 38.232 8.55152 38.9429C6.4044 39.6539 4.86161 40.1658 3.92313 40.4786C4.17908 39.6255 4.64832 38.1395 5.33084 36.0209C6.01337 33.9022 6.45417 32.4874 6.65324 31.7764ZM39.9264 10.7887C39.9264 10.8171 39.9122 10.8456 39.8838 10.874L39.7985 10.9593L39.6705 11.0873C39.1017 9.60848 38.277 8.31452 37.1963 7.20542C36.0588 6.06787 34.7933 5.2005 33.3998 4.60328L33.5277 4.47531L33.6131 4.38999C33.7552 4.2478 33.933 4.09139 34.1463 3.92076C34.3596 3.75013 34.7435 3.53684 35.298 3.28089C35.8526 3.02494 36.4 2.89697 36.9404 2.89697C37.4523 2.89697 37.9571 3.01072 38.4547 3.23823C38.9524 3.46574 39.4288 3.807 39.8838 4.26202C40.4525 4.80235 40.8862 5.34269 41.1848 5.88302C41.4834 6.42336 41.6327 6.94947 41.6327 7.46137C41.6327 8.5136 41.064 9.6227 39.9264 10.7887Z" fill="white"/>
</svg>
