<svg width="28" height="44" viewBox="0 0 28 44" fill="none" xmlns="http://www.w3.org/2000/svg">
<path d="M22 2.75C22.7293 2.75 23.4288 3.03973 23.9445 3.55546C24.4603 4.07118 24.75 4.77065 24.75 5.5V38.5C24.75 39.2293 24.4603 39.9288 23.9445 40.4445C23.4288 40.9603 22.7293 41.25 22 41.25H5.5C4.77065 41.25 4.07118 40.9603 3.55546 40.4445C3.03973 39.9288 2.75 39.2293 2.75 38.5V5.5C2.75 4.77065 3.03973 4.07118 3.55546 3.55546C4.07118 3.03973 4.77065 2.75 5.5 2.75H22ZM5.5 0C4.04131 0 2.64236 0.579463 1.61091 1.61091C0.579462 2.64236 0 4.04131 0 5.5V38.5C0 39.9587 0.579462 41.3576 1.61091 42.3891C2.64236 43.4205 4.04131 44 5.5 44H22C23.4587 44 24.8576 43.4205 25.8891 42.3891C26.9205 41.3576 27.5 39.9587 27.5 38.5V5.5C27.5 4.04131 26.9205 2.64236 25.8891 1.61091C24.8576 0.579463 23.4587 0 22 0L5.5 0Z" fill="white"/>
<rect x="2" y="39" width="24" height="3" fill="white"/>
<path d="M10.6488 27.6479C10.855 27.4379 10.9708 27.1532 10.9708 26.8563C10.9708 26.5595 10.855 26.2748 10.6488 26.0648L6.656 22.0022L10.6488 17.9397C10.757 17.8372 10.8437 17.7135 10.9039 17.5761C10.9641 17.4387 10.9964 17.2903 10.999 17.1399C11.0016 16.9895 10.9744 16.8401 10.9191 16.7007C10.8637 16.5612 10.7813 16.4345 10.6767 16.3281C10.5722 16.2217 10.4477 16.1379 10.3106 16.0815C10.1735 16.0252 10.0267 15.9975 9.87883 16.0002C9.731 16.0028 9.58522 16.0357 9.45017 16.097C9.31512 16.1582 9.19357 16.2465 9.09278 16.3565L4.32198 21.2106C4.11581 21.4207 4 21.7054 4 22.0022C4 22.2991 4.11581 22.5838 4.32198 22.7938L9.09278 27.6479C9.29921 27.8577 9.57903 27.9755 9.87079 27.9755C10.1625 27.9755 10.4424 27.8577 10.6488 27.6479ZM17.3512 27.6724C17.145 27.4624 17.0292 27.1777 17.0292 26.8808C17.0292 26.584 17.145 26.2992 17.3512 26.0892L21.344 22.0267L17.3512 17.9642C17.243 17.8616 17.1563 17.738 17.0961 17.6005C17.0359 17.4631 17.0036 17.3148 17.001 17.1644C16.9984 17.014 17.0256 16.8646 17.0809 16.7251C17.1363 16.5856 17.2187 16.4589 17.3233 16.3526C17.4278 16.2462 17.5523 16.1623 17.6894 16.106C17.8265 16.0496 17.9733 16.022 18.1212 16.0246C18.269 16.0273 18.4148 16.0602 18.5498 16.1214C18.6849 16.1827 18.8064 16.2709 18.9072 16.381L23.678 21.2351C23.8842 21.4451 24 21.7298 24 22.0267C24 22.3235 23.8842 22.6083 23.678 22.8183L18.9072 27.6724C18.7008 27.8822 18.421 28 18.1292 28C17.8375 28 17.5576 27.8822 17.3512 27.6724Z" fill="white"/>
</svg>
