<svg width="45" height="44" viewBox="0 0 45 44" fill="none" xmlns="http://www.w3.org/2000/svg">
<path d="M16.6965 34.8528C15.5327 38.344 12.7468 40.9127 8.64028 42.2817C6.78185 42.8969 4.84344 43.2369 2.88661 43.291C2.53365 43.291 2.19514 43.1507 1.94556 42.9012C1.69598 42.6516 1.55577 42.3131 1.55577 41.9601C1.60995 40.0034 1.95003 38.0652 2.56521 36.2069C3.9342 32.1001 6.50317 29.3142 9.99418 28.1504C10.1602 28.0943 10.3357 28.0715 10.5105 28.0834C10.6853 28.0953 10.8561 28.1416 11.013 28.2196C11.1699 28.2976 11.3098 28.4059 11.4248 28.5381C11.5398 28.6704 11.6275 28.8241 11.6829 28.9903C11.7383 29.1565 11.7603 29.3321 11.7477 29.5069C11.7351 29.6817 11.6881 29.8522 11.6095 30.0088C11.5308 30.1654 11.4219 30.3049 11.2892 30.4193C11.1564 30.5337 11.0024 30.6207 10.8359 30.6755C5.8963 32.3219 4.6431 37.8627 4.32525 40.5181C6.98094 40.1943 12.5314 38.9313 14.1713 34.011C14.2829 33.6761 14.523 33.3993 14.8387 33.2415C14.995 33.1633 15.1652 33.1167 15.3395 33.1043C15.5139 33.0919 15.689 33.114 15.8548 33.1692C16.0206 33.2245 16.1739 33.3119 16.3059 33.4264C16.438 33.5409 16.5461 33.6803 16.6243 33.8367C16.7025 33.993 16.7491 34.1632 16.7615 34.3375C16.7739 34.5119 16.7518 34.6869 16.6965 34.8528ZM38.9599 17.8069L36.8404 19.9263V33.6969C36.8414 34.1049 36.7616 34.5089 36.6055 34.8858C36.4494 35.2627 36.2201 35.6049 35.9309 35.8926L28.7573 43.0663C28.3598 43.4637 27.862 43.7459 27.3168 43.8826C26.7716 44.0193 26.1995 44.0055 25.6616 43.8426C25.1236 43.6797 24.6399 43.3739 24.2622 42.9577C23.8844 42.5415 23.6266 42.0306 23.5164 41.4795L21.7362 32.5784L12.2684 23.1105L3.36748 21.3303C2.81635 21.2201 2.30546 20.9624 1.88929 20.5846C1.47312 20.2069 1.16728 19.7232 1.00438 19.1853C0.841482 18.6474 0.827631 18.0753 0.964307 17.5302C1.10098 16.985 1.38306 16.4871 1.78046 16.0897L8.95435 8.916C9.24208 8.62677 9.5843 8.39748 9.96122 8.24138C10.3381 8.08528 10.7423 8.00548 11.1502 8.00659H24.9207L27.0403 5.88678C33.2384 -0.311386 39.5748 -0.134828 42.012 0.228491C42.6693 0.323942 43.2782 0.629279 43.7479 1.09898C44.2175 1.56868 44.5228 2.1776 44.6182 2.83494C44.982 5.27171 45.1583 11.6083 38.9599 17.8069ZM3.88962 18.7203L12.4871 20.44L22.259 10.6683H11.15C11.0917 10.6681 11.0339 10.6795 10.9801 10.7018C10.9262 10.7241 10.8773 10.7569 10.8362 10.7983L3.66249 17.9715C3.60567 18.0283 3.56535 18.0995 3.54582 18.1774C3.52629 18.2553 3.52829 18.3371 3.55161 18.414C3.57493 18.4909 3.61869 18.56 3.67822 18.6139C3.73775 18.6679 3.81082 18.7046 3.88962 18.7203ZM34.1787 22.5879L24.407 32.3599L26.1266 40.9575C26.1424 41.0363 26.1792 41.1093 26.2332 41.1688C26.2871 41.2283 26.3563 41.272 26.4331 41.2952C26.51 41.3185 26.5917 41.3205 26.6697 41.3009C26.7476 41.2814 26.8187 41.241 26.8755 41.1842L34.0489 34.0106C34.0902 33.9694 34.1229 33.9205 34.1452 33.8667C34.1674 33.8129 34.1788 33.7552 34.1787 33.6969V22.5879ZM37.0781 15.9247C38.8577 14.1449 42.8983 9.34497 41.9858 3.22798C41.9724 3.13544 41.9295 3.04971 41.8633 2.98359C41.7972 2.91747 41.7115 2.87451 41.619 2.86112C35.5022 1.94838 30.7021 5.98926 28.9221 7.76881L26.4134 10.2774L26.4121 10.279L14.8065 21.8846L22.9623 30.0404L34.5682 18.4346L34.569 18.4335L37.0781 15.9247Z" fill="white"/>
</svg>
