<svg width="48" height="48" viewBox="0 0 48 48" fill="none" xmlns="http://www.w3.org/2000/svg">
<path d="M28.9944 11.9942C28.5655 12.4248 28.3253 13.0036 28.3253 13.6065C28.3253 14.2094 28.5655 14.7883 28.9944 15.2189L32.7394 18.9042C33.1769 19.3262 33.7652 19.5626 34.3779 19.5626C34.9906 19.5626 35.5788 19.3262 36.0163 18.9042L44.8407 10.2207C46.0176 12.7801 46.374 15.6317 45.8623 18.3955C45.3505 21.1593 43.995 23.704 41.9763 25.6904C39.9577 27.6769 37.3717 29.0108 34.5631 29.5143C31.7545 30.0179 28.8567 29.6672 26.2558 28.509L10.0818 44.425C9.15059 45.3413 7.88765 45.8561 6.57077 45.8561C5.25389 45.8561 3.99095 45.3413 3.05977 44.425C2.1286 43.5087 1.60547 42.2659 1.60547 40.97C1.60547 39.6741 2.1286 38.4314 3.05977 37.515L19.2338 21.5991C18.0568 19.0396 17.7004 16.188 18.2122 13.4242C18.7239 10.6605 20.0794 8.11578 22.0981 6.12932C24.1168 4.14285 26.7027 2.80896 29.5113 2.30539C32.3199 1.80182 35.2177 2.1525 37.8187 3.31069L29.0178 11.9712L28.9944 11.9942Z" stroke="white" stroke-width="2.5" stroke-linecap="round" stroke-linejoin="round"/>
</svg>
