<svg width="21" height="17" viewBox="0 0 21 17" fill="none" xmlns="http://www.w3.org/2000/svg">
<g opacity="0.5">
<path d="M4.83075 8.51687C7.07995 8.51687 8.59565 10.1715 8.59565 12.623C8.59565 14.8291 6.85359 16.6671 4.49409 16.6671C1.90966 16.6671 0 14.461 0 11.0912C0 3.4319 5.28059 0.368191 8.59565 0V3.36978C6.34788 3.79858 3.82077 6.18803 3.70759 8.82445C3.82077 8.76385 4.26917 8.51687 4.83075 8.51687Z" fill="white"/>
<path d="M16.2384 8.51687C18.4848 8.51687 20.0019 10.1715 20.0019 12.623C20.0019 14.8291 18.2598 16.6671 15.9003 16.6671C13.3159 16.6671 11.4062 14.461 11.4062 11.0912C11.4062 3.4319 16.6868 0.368191 20.0019 0V3.36978C17.7541 3.79858 15.227 6.18803 15.1138 8.82445C15.227 8.76385 15.6754 8.51687 16.2384 8.51687Z" fill="white"/>
</g>
</svg>
