<svg width="77" height="76" viewBox="0 0 77 76" fill="none" xmlns="http://www.w3.org/2000/svg">
<g filter="url(#filter0_b_824_2613)">
<rect x="21" y="18.2329" width="55" height="56.7671" rx="12" fill="url(#paint0_radial_824_2613)" fill-opacity="0.2"/>
<rect x="21" y="18.2329" width="55" height="56.7671" rx="12" stroke="url(#paint1_linear_824_2613)" stroke-width="0.5"/>
</g>
<ellipse cx="48.3125" cy="18.9224" rx="19" ry="18.9224" fill="url(#paint2_linear_824_2613)"/>
<g filter="url(#filter1_b_824_2613)">
<path d="M52.3625 34.396C52.3625 40.2302 49.6675 45.6322 45.0201 49.2515C43.1226 50.7101 41.8851 52.6278 41.5001 54.6806L41.3626 54.6536H24.8628L24.6703 54.6806C24.2853 52.5468 23.1578 50.6831 21.5353 49.4946C15.5404 45.038 12.7354 37.7453 14.2754 30.3985C15.7879 23.2409 21.7003 17.4067 28.9877 15.9211C34.7902 14.7057 40.7301 16.1102 45.2401 19.7025C49.7775 23.3219 52.3625 28.6699 52.3625 34.396Z" fill="url(#paint3_linear_824_2613)" fill-opacity="0.35"/>
<path d="M41.3013 54.4036H24.8713C24.4379 52.3092 23.3022 50.4792 21.6838 49.2935C15.767 44.8946 13.0004 37.7003 14.52 30.4501C16.0116 23.3915 21.8463 17.6321 29.0377 16.1661L29.039 16.1658C34.7698 14.9654 40.6335 16.3529 45.0842 19.898C49.5628 23.4704 52.1125 28.7468 52.1125 34.396C52.1125 40.1509 49.4549 45.4807 44.8669 49.0539C42.9987 50.4902 41.746 52.3707 41.3013 54.4036Z" stroke="url(#paint4_linear_824_2613)" stroke-opacity="0.5" stroke-width="0.5"/>
</g>
<path d="M51.0696 19.0876C50.5416 19.0876 50.0136 18.8905 49.6121 18.4934C48.8064 17.702 48.8064 16.419 49.6121 15.6276L53.4181 11.8894C54.2239 11.098 55.5301 11.098 56.3359 11.8894C57.1417 12.6808 57.1417 13.9638 56.3359 14.7552L52.5299 18.4934C52.1256 18.8878 51.5976 19.0876 51.0696 19.0876Z" fill="url(#paint5_linear_824_2613)" fill-opacity="0.35"/>
<path d="M49.7879 18.3156L49.7873 18.3151C49.0813 17.6216 49.0813 16.4994 49.7873 15.806L53.5933 12.0678C54.3018 11.3719 55.4522 11.3719 56.1607 12.0678C56.8667 12.7612 56.8667 13.8834 56.1607 14.5769L52.3553 18.3145C52.3552 18.3145 52.3551 18.3146 52.3551 18.3147C51.9992 18.6617 51.5347 18.8376 51.0696 18.8376C50.6036 18.8376 50.1399 18.6638 49.7879 18.3156Z" stroke="url(#paint6_linear_824_2613)" stroke-opacity="0.5" stroke-width="0.5"/>
<path d="M63.9364 36.8388H58.5547C57.4162 36.8388 56.4922 35.9305 56.4922 34.8114C56.4922 33.6922 57.4162 32.7839 58.5547 32.7839H63.9364C65.0749 32.7839 65.9989 33.6922 65.9989 34.8114C65.9989 35.9305 65.0749 36.8388 63.9364 36.8388Z" fill="url(#paint7_linear_824_2613)" fill-opacity="0.35"/>
<path d="M63.9364 36.5888H58.5547C57.5502 36.5888 56.7422 35.7884 56.7422 34.8114C56.7422 33.8343 57.5502 33.0339 58.5547 33.0339H63.9364C64.9409 33.0339 65.7489 33.8343 65.7489 34.8114C65.7489 35.7884 64.9409 36.5888 63.9364 36.5888Z" stroke="url(#paint8_linear_824_2613)" stroke-opacity="0.5" stroke-width="0.5"/>
<path d="M54.8756 58.322C54.3476 58.322 53.8196 58.1248 53.4181 57.7278L49.6121 53.9896C48.8064 53.1982 48.8064 51.9152 49.6121 51.1238C50.4179 50.3324 51.7241 50.3324 52.5299 51.1238L56.3359 54.862C57.1417 55.6534 57.1417 56.9364 56.3359 57.7278C55.9316 58.1248 55.4036 58.322 54.8756 58.322Z" fill="url(#paint9_linear_824_2613)" fill-opacity="0.35"/>
<path d="M53.5939 57.55L53.5933 57.5494L49.7873 53.8112C49.0813 53.1178 49.0813 51.9956 49.7873 51.3022C50.4958 50.6063 51.6462 50.6063 52.3547 51.3022L56.1607 55.0404C56.8667 55.7338 56.8667 56.856 56.1607 57.5494C55.8056 57.8982 55.3415 58.072 54.8756 58.072C54.4096 58.072 53.9459 57.8981 53.5939 57.55Z" stroke="url(#paint10_linear_824_2613)" stroke-opacity="0.5" stroke-width="0.5"/>
<path d="M41.2595 55.0701C41.3289 55.0837 41.3745 55.1505 41.3627 55.2203C41.2925 55.6378 41.2471 56.0573 41.2471 56.4991V62.4951C41.2471 65.088 39.0746 67.2217 36.4346 67.2217H29.5597C27.2497 67.2217 24.7472 65.4932 24.7472 61.7119V56.9313C24.7472 56.376 24.7032 55.8206 24.5957 55.2846C24.5751 55.1822 24.6437 55.0821 24.7472 55.0676H41.2345C41.2429 55.0676 41.2512 55.0684 41.2595 55.0701Z" fill="#0056FF" fill-opacity="0.35" stroke="url(#paint11_linear_824_2613)" stroke-opacity="0.5" stroke-width="0.5"/>
<path d="M33 11.7353C31.8615 11.7353 30.9375 10.8277 30.9375 9.70951V4.42369C30.9375 3.30548 31.8615 2.39795 33 2.39795C34.1384 2.39795 35.0624 3.30548 35.0624 4.42369V9.70951C35.0624 10.8277 34.1384 11.7353 33 11.7353Z" fill="url(#paint12_linear_824_2613)" fill-opacity="0.35"/>
<path d="M33 11.4853C31.9953 11.4853 31.1875 10.6854 31.1875 9.70951V4.42369C31.1875 3.44777 31.9953 2.64795 33 2.64795C34.0046 2.64795 34.8124 3.44777 34.8124 4.42369V9.70951C34.8124 10.6854 34.0046 11.4853 33 11.4853Z" stroke="url(#paint13_linear_824_2613)" stroke-opacity="0.5" stroke-width="0.5"/>
<path d="M14.9303 19.0876C14.4023 19.0876 13.8743 18.8905 13.4728 18.4934L9.66682 14.7552C8.86106 13.9638 8.86106 12.6808 9.66682 11.8894C10.4726 11.098 11.7788 11.098 12.5846 11.8894L16.3906 15.6276C17.1964 16.419 17.1964 17.702 16.3906 18.4934C15.9836 18.8878 15.4583 19.0876 14.9303 19.0876Z" fill="url(#paint14_linear_824_2613)" fill-opacity="0.35"/>
<path d="M13.6486 18.3156L13.648 18.3151L9.842 14.5769C9.136 13.8834 9.136 12.7612 9.842 12.0678C10.5505 11.3719 11.7009 11.3719 12.4094 12.0678L16.2154 15.806C16.9212 16.4992 16.9214 17.621 16.216 18.3145C15.8569 18.6621 15.3947 18.8376 14.9303 18.8376C14.4643 18.8376 14.0006 18.6638 13.6486 18.3156Z" stroke="url(#paint15_linear_824_2613)" stroke-opacity="0.5" stroke-width="0.5"/>
<path d="M7.44444 36.8388H2.06255C0.924023 36.8388 0 35.9305 0 34.8114C0 33.6922 0.924023 32.7839 2.06255 32.7839H7.44444C8.58296 32.7839 9.50699 33.6922 9.50699 34.8114C9.50699 35.9305 8.58296 36.8388 7.44444 36.8388Z" fill="url(#paint16_linear_824_2613)" fill-opacity="0.35"/>
<path d="M7.44444 36.5888H2.06255C1.05803 36.5888 0.25 35.7884 0.25 34.8114C0.25 33.8343 1.05803 33.0339 2.06255 33.0339H7.44444C8.44896 33.0339 9.25699 33.8343 9.25699 34.8114C9.25699 35.7884 8.44896 36.5888 7.44444 36.5888Z" stroke="url(#paint17_linear_824_2613)" stroke-opacity="0.5" stroke-width="0.5"/>
<path d="M11.1243 58.322C10.5963 58.322 10.0683 58.1248 9.66682 57.7278C8.86106 56.9364 8.86106 55.6534 9.66682 54.862L13.4728 51.1238C14.2786 50.3324 15.5848 50.3324 16.3906 51.1238C17.1964 51.9152 17.1964 53.1982 16.3906 53.9896L12.5846 57.7278C12.1803 58.1248 11.6523 58.322 11.1243 58.322Z" fill="url(#paint18_linear_824_2613)" fill-opacity="0.35"/>
<path d="M9.84261 57.55L9.842 57.5494C9.136 56.856 9.136 55.7338 9.842 55.0404L13.648 51.3022C14.3565 50.6063 15.5069 50.6063 16.2154 51.3022C16.9214 51.9956 16.9214 53.1178 16.2154 53.8112L12.4094 57.5494C12.0543 57.8982 11.5902 58.072 11.1243 58.072C10.6583 58.072 10.1946 57.8981 9.84261 57.55Z" stroke="url(#paint19_linear_824_2613)" stroke-opacity="0.5" stroke-width="0.5"/>
<defs>
<filter id="filter0_b_824_2613" x="12.3654" y="9.59827" width="72.2693" height="74.0364" filterUnits="userSpaceOnUse" color-interpolation-filters="sRGB">
<feFlood flood-opacity="0" result="BackgroundImageFix"/>
<feGaussianBlur in="BackgroundImage" stdDeviation="4.19232"/>
<feComposite in2="SourceAlpha" operator="in" result="effect1_backgroundBlur_824_2613"/>
<feBlend mode="normal" in="SourceGraphic" in2="effect1_backgroundBlur_824_2613" result="shape"/>
</filter>
<filter id="filter1_b_824_2613" x="-17.8456" y="-16.2123" width="101.914" height="102.598" filterUnits="userSpaceOnUse" color-interpolation-filters="sRGB">
<feFlood flood-opacity="0" result="BackgroundImageFix"/>
<feGaussianBlur in="BackgroundImage" stdDeviation="15.8525"/>
<feComposite in2="SourceAlpha" operator="in" result="effect1_backgroundBlur_824_2613"/>
<feBlend mode="normal" in="SourceGraphic" in2="effect1_backgroundBlur_824_2613" result="shape"/>
</filter>
<radialGradient id="paint0_radial_824_2613" cx="0" cy="0" r="1" gradientUnits="userSpaceOnUse" gradientTransform="translate(21 18.2329) rotate(45.9058) scale(79.0412 79.0017)">
<stop stop-color="#FAFAFA"/>
<stop offset="1" stop-color="#F7F7F7" stop-opacity="0"/>
</radialGradient>
<linearGradient id="paint1_linear_824_2613" x1="48.5" y1="18.2329" x2="48.5" y2="75" gradientUnits="userSpaceOnUse">
<stop stop-color="white"/>
<stop offset="1" stop-color="white" stop-opacity="0"/>
</linearGradient>
<linearGradient id="paint2_linear_824_2613" x1="29.3125" y1="37.8447" x2="67.9702" y2="0.684214" gradientUnits="userSpaceOnUse">
<stop stop-color="#004EE7"/>
<stop offset="0.857292" stop-color="#5F95FF"/>
</linearGradient>
<linearGradient id="paint3_linear_824_2613" x1="0.114047" y1="39.5139" x2="52.1312" y2="36.591" gradientUnits="userSpaceOnUse">
<stop stop-color="#0056FF"/>
<stop offset="1" stop-color="#004EE7"/>
</linearGradient>
<linearGradient id="paint4_linear_824_2613" x1="33.1109" y1="15.4927" x2="33.1109" y2="54.6806" gradientUnits="userSpaceOnUse">
<stop stop-color="white"/>
<stop offset="1" stop-color="white" stop-opacity="0.0854168"/>
</linearGradient>
<linearGradient id="paint5_linear_824_2613" x1="48.3976" y1="5.90162" x2="53.1409" y2="15.5593" gradientUnits="userSpaceOnUse">
<stop offset="0.0968749" stop-color="white"/>
<stop offset="1" stop-color="#0056FF"/>
</linearGradient>
<linearGradient id="paint6_linear_824_2613" x1="52.974" y1="11.2959" x2="52.974" y2="19.0876" gradientUnits="userSpaceOnUse">
<stop stop-color="white"/>
<stop offset="1" stop-color="white" stop-opacity="0.0854168"/>
</linearGradient>
<linearGradient id="paint7_linear_824_2613" x1="55.7609" y1="29.9767" x2="57.0334" y2="35.9436" gradientUnits="userSpaceOnUse">
<stop offset="0.0968749" stop-color="white"/>
<stop offset="1" stop-color="#0056FF"/>
</linearGradient>
<linearGradient id="paint8_linear_824_2613" x1="61.2455" y1="32.7839" x2="61.2455" y2="36.8388" gradientUnits="userSpaceOnUse">
<stop stop-color="white"/>
<stop offset="1" stop-color="white" stop-opacity="0.0854168"/>
</linearGradient>
<linearGradient id="paint9_linear_824_2613" x1="48.3976" y1="45.136" x2="53.1409" y2="54.7937" gradientUnits="userSpaceOnUse">
<stop offset="0.0968749" stop-color="white"/>
<stop offset="1" stop-color="#0056FF"/>
</linearGradient>
<linearGradient id="paint10_linear_824_2613" x1="52.974" y1="50.5303" x2="52.974" y2="58.322" gradientUnits="userSpaceOnUse">
<stop stop-color="white"/>
<stop offset="1" stop-color="white" stop-opacity="0.0854168"/>
</linearGradient>
<linearGradient id="paint11_linear_824_2613" x1="32.9696" y1="55.0676" x2="32.9696" y2="67.2217" gradientUnits="userSpaceOnUse">
<stop stop-color="white"/>
<stop offset="1" stop-color="white" stop-opacity="0.0854168"/>
</linearGradient>
<linearGradient id="paint12_linear_824_2613" x1="30.6202" y1="-4.06634" x2="37.748" y2="2.23133" gradientUnits="userSpaceOnUse">
<stop offset="0.0968749" stop-color="white"/>
<stop offset="1" stop-color="#0056FF"/>
</linearGradient>
<linearGradient id="paint13_linear_824_2613" x1="33" y1="2.39795" x2="33" y2="11.7353" gradientUnits="userSpaceOnUse">
<stop stop-color="white"/>
<stop offset="1" stop-color="white" stop-opacity="0.0854168"/>
</linearGradient>
<linearGradient id="paint14_linear_824_2613" x1="8.45231" y1="5.90162" x2="13.1955" y2="15.5594" gradientUnits="userSpaceOnUse">
<stop offset="0.0968749" stop-color="white"/>
<stop offset="1" stop-color="#0056FF"/>
</linearGradient>
<linearGradient id="paint15_linear_824_2613" x1="13.0287" y1="11.2959" x2="13.0287" y2="19.0876" gradientUnits="userSpaceOnUse">
<stop stop-color="white"/>
<stop offset="1" stop-color="white" stop-opacity="0.0854168"/>
</linearGradient>
<linearGradient id="paint16_linear_824_2613" x1="-0.731307" y1="29.9767" x2="0.541196" y2="35.9436" gradientUnits="userSpaceOnUse">
<stop offset="0.0968749" stop-color="white"/>
<stop offset="1" stop-color="#0056FF"/>
</linearGradient>
<linearGradient id="paint17_linear_824_2613" x1="4.75349" y1="32.7839" x2="4.75349" y2="36.8388" gradientUnits="userSpaceOnUse">
<stop stop-color="white"/>
<stop offset="1" stop-color="white" stop-opacity="0.0854168"/>
</linearGradient>
<linearGradient id="paint18_linear_824_2613" x1="8.45231" y1="45.136" x2="13.1956" y2="54.7937" gradientUnits="userSpaceOnUse">
<stop offset="0.0968749" stop-color="white"/>
<stop offset="1" stop-color="#0056FF"/>
</linearGradient>
<linearGradient id="paint19_linear_824_2613" x1="13.0287" y1="50.5303" x2="13.0287" y2="58.322" gradientUnits="userSpaceOnUse">
<stop stop-color="white"/>
<stop offset="1" stop-color="white" stop-opacity="0.0854168"/>
</linearGradient>
</defs>
</svg>
