<svg width="21" height="21" viewBox="0 0 21 21" fill="none" xmlns="http://www.w3.org/2000/svg">
<path d="M10.3957 6.98263C8.55954 6.98263 7.06106 8.48114 7.06106 10.3174C7.06106 12.1536 8.55954 13.6521 10.3957 13.6521C12.232 13.6521 13.7304 12.1536 13.7304 10.3174C13.7304 8.48114 12.232 6.98263 10.3957 6.98263ZM20.3973 10.3174C20.3973 8.93645 20.4098 7.56803 20.3323 6.18959C20.2547 4.58851 19.8895 3.16755 18.7187 1.99676C17.5454 0.823468 16.127 0.460723 14.526 0.383171C13.1451 0.305618 11.7767 0.318127 10.3982 0.318127C9.01734 0.318127 7.64894 0.305618 6.27054 0.383171C4.66949 0.460723 3.24855 0.82597 2.07778 1.99676C0.904514 3.17005 0.541775 4.58851 0.464224 6.18959C0.386673 7.57053 0.399182 8.93895 0.399182 10.3174C0.399182 11.6958 0.386673 13.0667 0.464224 14.4452C0.541775 16.0463 0.907015 17.4672 2.07778 18.638C3.25106 19.8113 4.66949 20.174 6.27054 20.2516C7.65145 20.3291 9.01984 20.3166 10.3982 20.3166C11.7792 20.3166 13.1476 20.3291 14.526 20.2516C16.127 20.174 17.5479 19.8088 18.7187 18.638C19.892 17.4647 20.2547 16.0463 20.3323 14.4452C20.4123 13.0667 20.3973 11.6983 20.3973 10.3174ZM10.3957 15.4483C7.55638 15.4483 5.26488 13.1568 5.26488 10.3174C5.26488 7.47796 7.55638 5.18642 10.3957 5.18642C13.2351 5.18642 15.5266 7.47796 15.5266 10.3174C15.5266 13.1568 13.2351 15.4483 10.3957 15.4483ZM15.7368 6.17458C15.0738 6.17458 14.5385 5.63922 14.5385 4.97627C14.5385 4.31333 15.0738 3.77796 15.7368 3.77796C16.3997 3.77796 16.935 4.31333 16.935 4.97627C16.9352 5.13369 16.9044 5.28961 16.8442 5.43508C16.7841 5.58056 16.6958 5.71273 16.5845 5.82405C16.4732 5.93536 16.341 6.02362 16.1956 6.08377C16.0501 6.14392 15.8942 6.17478 15.7368 6.17458Z" fill="white"/>
</svg>
