<svg width="31" height="31" viewBox="0 0 31 31" fill="none" xmlns="http://www.w3.org/2000/svg">
<path d="M0.31142 12.2406C1.11271 8.32608 3.42562 4.87506 6.75856 2.62116C9.2834 0.913583 12.2707 0 15.3291 0C18.3877 0 21.3749 0.913583 23.8998 2.62116C27.2327 4.87499 29.5456 8.32605 30.3467 12.2406C30.762 14.2792 30.762 16.3792 30.3467 18.4177C29.5455 22.3321 27.2326 25.7831 23.8998 28.0371C21.3749 29.7446 18.3877 30.6582 15.3291 30.6582C12.2707 30.6582 9.2834 29.7446 6.75856 28.0371C3.42552 25.7833 1.11252 22.3322 0.31142 18.4177C-0.103807 16.3792 -0.103807 14.2792 0.31142 12.2406ZM15.3291 1.73517C7.83951 1.73517 1.74629 7.83323 1.74629 15.3291C1.74629 22.8251 7.83951 28.9231 15.3291 28.9231C22.8186 28.9231 28.9119 22.8249 28.9119 15.3291C28.9119 7.83345 22.8186 1.73517 15.3291 1.73517ZM4.88524 13.1719C5.17018 11.7456 5.73009 10.387 6.53444 9.17011C6.92664 8.57738 7.37488 8.0228 7.87299 7.5138C8.36823 7.00784 8.91144 6.55007 9.49524 6.14681C10.0799 5.7434 10.7033 5.39792 11.3565 5.11538C12.7021 4.53442 14.1545 4.23456 15.6228 4.23456C17.091 4.23456 18.5434 4.53442 19.889 5.11538C20.5424 5.39803 21.166 5.74365 21.7508 6.14724C22.3344 6.55052 22.8777 7.00827 23.3729 7.51423C24.3774 8.54141 25.1746 9.74873 25.7218 11.0715C26.0025 11.7498 26.2164 12.4533 26.3605 13.1722C26.6573 14.6615 26.6573 16.1938 26.3605 17.6831C26.0755 19.1093 25.5156 20.468 24.7113 21.6848C24.319 22.2775 23.8708 22.8321 23.3727 23.3411C22.8775 23.8471 22.3342 24.3049 21.7506 24.7081C21.1658 25.1117 20.5422 25.4573 19.8888 25.7399C18.5432 26.3209 17.0908 26.6208 15.6226 26.6208C14.1543 26.6208 12.7019 26.3209 11.3563 25.7399C10.7029 25.4574 10.0793 25.1117 9.49456 24.7081C8.91087 24.3049 8.36766 23.8471 7.87232 23.3411C6.86783 22.3139 6.07058 21.1066 5.52343 19.7838C5.24281 19.1055 5.02896 18.402 4.88476 17.6831C4.58793 16.1938 4.58793 14.6615 4.88476 13.1722L4.88524 13.1719ZM15.6206 5.96729C10.5027 5.96729 6.33901 10.2102 6.33901 15.4253C6.33901 20.6406 10.5027 24.8834 15.6206 24.8834C20.7385 24.8834 24.9017 20.6406 24.9017 15.4252C24.9017 10.21 20.738 5.96729 15.6206 5.96729ZM9.29002 9.35796C9.37838 9.26201 9.49121 9.19131 9.6166 9.15323C9.72136 9.12296 9.83112 9.11309 9.93963 9.12419C10.059 9.13532 10.1757 9.16577 10.2851 9.21432L16.2889 12.0248L19.8974 9.32026C20.0038 9.25625 20.1208 9.21157 20.2432 9.18837C20.3606 9.16492 20.4815 9.16344 20.5994 9.18399C20.7483 9.2116 20.8887 9.27298 21.0096 9.3633C21.1245 9.44449 21.2167 9.55336 21.2772 9.67959C21.3231 9.77988 21.3465 9.88872 21.3456 9.9987C21.3448 10.132 21.316 10.2637 21.2613 10.3854L18.9475 14.7911L21.7316 20.4165C21.8147 20.587 21.86 20.7731 21.8645 20.9624C21.8676 21.0667 21.8488 21.1705 21.8093 21.2673C21.7698 21.3641 21.7105 21.4517 21.635 21.5247C21.5397 21.62 21.4197 21.6876 21.288 21.7198C21.1815 21.7439 21.0711 21.7451 20.9641 21.7235C20.8467 21.7005 20.7344 21.6568 20.6326 21.5946L14.8973 18.7309L11.1531 21.0983C11.0563 21.1611 10.9488 21.2062 10.836 21.2316C10.7171 21.2602 10.5933 21.261 10.4741 21.2341C10.3549 21.2071 10.2438 21.153 10.1493 21.0763C10.0618 21.0071 9.99201 20.9183 9.94586 20.8172C9.89972 20.7162 9.87842 20.6057 9.88379 20.495C9.88792 20.3135 9.92754 20.1344 10.0006 19.968L12.399 16.1793L9.18439 10.3753C9.11589 10.2283 9.07934 10.0685 9.07732 9.90657C9.073 9.70323 9.14928 9.50635 9.28964 9.35785L9.29002 9.35796ZM16.7278 14.0278L11.7713 11.6923L14.5439 16.6981L19.232 19.0723L16.7278 14.0278ZM15.5879 14.4315C15.7546 14.4311 15.9176 14.4798 16.0564 14.5711C16.1952 14.6626 16.3035 14.7926 16.3675 14.9449C16.4316 15.0972 16.4485 15.2648 16.4162 15.4267C16.3839 15.5884 16.3038 15.7371 16.186 15.8539C16.0682 15.9706 15.9181 16.0502 15.7546 16.0825C15.5911 16.1148 15.4216 16.0983 15.2675 16.0354C15.1135 15.9723 14.9818 15.8654 14.8891 15.7283C14.7965 15.5913 14.7471 15.43 14.7471 15.2651C14.7469 15.0442 14.8354 14.8322 14.9931 14.6759C15.1509 14.5196 15.3649 14.4316 15.5882 14.4314L15.5879 14.4315Z" fill="white"/>
</svg>
