<svg width="21" height="21" viewBox="0 0 21 21" fill="none" xmlns="http://www.w3.org/2000/svg">
<path d="M17.7909 17.4934H14.8276V12.8525C14.8276 11.7459 14.8078 10.3213 13.2863 10.3213C11.7429 10.3213 11.5067 11.527 11.5067 12.772V17.493H8.54344V7.94962H11.3882V9.25384H11.428C11.7127 8.76704 12.1241 8.36658 12.6184 8.0951C13.1127 7.82362 13.6714 7.69129 14.2349 7.7122C17.2384 7.7122 17.7922 9.68782 17.7922 12.258L17.7909 17.4934ZM5.19969 6.64516C4.24992 6.64532 3.47984 5.87548 3.47969 4.92571C3.47953 3.97595 4.2493 3.20587 5.19906 3.20571C6.14883 3.20548 6.91891 3.97532 6.91906 4.92509C6.91915 5.38118 6.73805 5.81863 6.4156 6.14121C6.09316 6.46378 5.65578 6.64506 5.19969 6.64516ZM6.68141 17.4934H3.71492V7.94962H6.68133V17.4934L6.68141 17.4934ZM19.2683 0.453604L2.22586 0.453604C1.42039 0.444542 0.759844 1.08978 0.75 1.89524L0.75 19.0088C0.759531 19.8146 1.42 20.4605 2.22578 20.452H19.2683C20.0758 20.462 20.7388 19.8162 20.75 19.0088V1.89392C20.7385 1.08689 20.0754 0.441729 19.2683 0.452276" fill="white"/>
</svg>
