<svg width="16" height="21" viewBox="0 0 16 21" fill="none" xmlns="http://www.w3.org/2000/svg">
<path d="M7.59134 11.7559C6.90885 11.7559 6.24169 11.5535 5.67423 11.1744C5.10676 10.7952 4.66447 10.2563 4.4033 9.62573C4.14212 8.9952 4.07378 8.30138 4.20693 7.632C4.34008 6.96263 4.66873 6.34777 5.15132 5.86518C5.63391 5.38259 6.24876 5.05394 6.91814 4.9208C7.58751 4.78765 8.28133 4.85599 8.91187 5.11716C9.5424 5.37834 10.0813 5.82063 10.4605 6.38809C10.8397 6.95556 11.042 7.62272 11.042 8.3052C11.041 9.22005 10.677 10.0971 10.0301 10.744C9.38325 11.3909 8.50619 11.7548 7.59134 11.7559ZM7.59134 6.23478C7.18185 6.23478 6.78155 6.35621 6.44107 6.58371C6.10059 6.81121 5.83522 7.13457 5.67851 7.51289C5.52181 7.89121 5.48081 8.3075 5.56069 8.70912C5.64058 9.11075 5.83777 9.47966 6.12732 9.76922C6.41688 10.0588 6.78579 10.256 7.18742 10.3358C7.58904 10.4157 8.00533 10.3747 8.38366 10.218C8.76198 10.0613 9.08533 9.79595 9.31283 9.45547C9.54034 9.11499 9.66176 8.7147 9.66176 8.3052C9.66122 7.75626 9.44291 7.22996 9.05474 6.8418C8.66658 6.45364 8.14028 6.23533 7.59134 6.23478Z" fill="white"/>
<path d="M7.59157 20.0378L1.76953 13.1716C1.68863 13.0685 1.60858 12.9648 1.52936 12.8604C0.534855 11.5503 -0.00240252 9.95019 8.07665e-06 8.30543C8.07665e-06 6.29202 0.799831 4.36108 2.22353 2.93738C3.64722 1.51369 5.57816 0.713867 7.59157 0.713867C9.60498 0.713867 11.5359 1.51369 12.9596 2.93738C14.3833 4.36108 15.1831 6.29202 15.1831 8.30543C15.1855 9.94945 14.6485 11.5489 13.6545 12.8583L13.6538 12.8604C13.6538 12.8604 13.4467 13.1323 13.4157 13.1689L7.59157 20.0378ZM2.63083 12.0287C2.63221 12.0287 2.79232 12.2413 2.8289 12.2869L7.59157 17.9039L12.3605 12.2793C12.3908 12.2413 12.5523 12.0274 12.553 12.0267C13.3654 10.9563 13.8044 9.64916 13.8028 8.30543C13.8028 6.6581 13.1484 5.07823 11.9836 3.91339C10.8188 2.74855 9.2389 2.09415 7.59157 2.09415C5.94424 2.09415 4.36437 2.74855 3.19953 3.91339C2.03469 5.07823 1.38029 6.6581 1.38029 8.30543C1.37884 9.64999 1.81838 10.9579 2.63152 12.0287H2.63083Z" fill="white"/>
</svg>
