<svg width="22" height="18" viewBox="0 0 22 18" fill="none" xmlns="http://www.w3.org/2000/svg">
<path d="M2 5.02405L9.9584 10.3297C10.2899 10.5508 10.6795 10.6689 11.078 10.6689C11.4765 10.6689 11.8661 10.5508 12.1976 10.3297L20.156 5.02405M4.01734 16.1194H18.1387C18.6737 16.1194 19.1869 15.9069 19.5652 15.5286C19.9435 15.1502 20.156 14.6371 20.156 14.1021V4.01539C20.156 3.48035 19.9435 2.96724 19.5652 2.58891C19.1869 2.21059 18.6737 1.99805 18.1387 1.99805H4.01734C3.48231 1.99805 2.96919 2.21059 2.59086 2.58891C2.21254 2.96724 2 3.48035 2 4.01539V14.1021C2 14.6371 2.21254 15.1502 2.59086 15.5286C2.96919 15.9069 3.48231 16.1194 4.01734 16.1194Z" stroke="white" stroke-width="2.01734" stroke-linecap="round" stroke-linejoin="round"/>
</svg>
