<svg width="18" height="18" viewBox="0 0 18 18" fill="none" xmlns="http://www.w3.org/2000/svg">
<path d="M1 2.73225C1 2.27231 1.18271 1.83121 1.50794 1.50598C1.83316 1.18076 2.27426 0.998047 2.7342 0.998047H5.5783C5.76021 0.998185 5.93747 1.05553 6.08499 1.16197C6.23251 1.26841 6.34282 1.41855 6.40031 1.59114L7.69923 5.48703C7.76504 5.68502 7.75726 5.90011 7.6773 6.09283C7.59735 6.28555 7.45059 6.44297 7.26394 6.53622L5.30689 7.51605C6.26618 9.63918 7.96669 11.3397 10.0898 12.299L11.0697 10.3419C11.1629 10.1553 11.3203 10.0085 11.513 9.92857C11.7058 9.84862 11.9209 9.84083 12.1188 9.90665L16.0147 11.2056C16.1875 11.2631 16.3377 11.3735 16.4442 11.5212C16.5506 11.6689 16.6079 11.8464 16.6078 12.0284V14.8717C16.6078 15.3316 16.4251 15.7727 16.0999 16.0979C15.7747 16.4232 15.3336 16.6059 14.8736 16.6059H14.0065C6.82345 16.6059 1 10.7824 1 3.59935V2.73225Z" stroke="white" stroke-width="1.7342" stroke-linecap="round" stroke-linejoin="round"/>
</svg>
