<svg width="21" height="21" viewBox="0 0 21 21" fill="none" xmlns="http://www.w3.org/2000/svg">
<path d="M15.9375 10.5614V10.4714C15.9329 10.3754 15.9127 10.2808 15.8775 10.1914C15.8508 10.1228 15.8137 10.0587 15.7675 10.0014C15.741 9.95577 15.7109 9.9123 15.6775 9.87141L12.8175 6.87141C12.7269 6.7762 12.6184 6.69977 12.4983 6.64649C12.3781 6.5932 12.2486 6.5641 12.1172 6.56085C11.8519 6.55429 11.5948 6.65341 11.4025 6.83641C11.2102 7.01941 11.0985 7.2713 11.0919 7.53666C11.0854 7.80202 11.1845 8.05913 11.3675 8.25141L12.5975 9.56141H6.9375C6.67228 9.56141 6.41793 9.66677 6.23039 9.8543C6.04286 10.0418 5.9375 10.2962 5.9375 10.5614C5.9375 10.8266 6.04286 11.081 6.23039 11.2685C6.41793 11.4561 6.67228 11.5614 6.9375 11.5614H12.5275L11.2275 12.8514C11.1338 12.9444 11.0594 13.055 11.0086 13.1768C10.9578 13.2987 10.9317 13.4294 10.9317 13.5614C10.9317 13.6934 10.9578 13.8241 11.0086 13.946C11.0594 14.0678 11.1338 14.1784 11.2275 14.2714C11.3205 14.3651 11.4311 14.4395 11.5529 14.4903C11.6748 14.5411 11.8055 14.5672 11.9375 14.5672C12.0695 14.5672 12.2002 14.5411 12.3221 14.4903C12.4439 14.4395 12.5545 14.3651 12.6475 14.2714L15.6475 11.2714C15.7374 11.1793 15.8088 11.0706 15.8575 10.9514C15.91 10.8281 15.9372 10.6955 15.9375 10.5614Z" fill="#A8A8A8"/>
<path d="M10.9375 0.561523C8.95969 0.561523 7.02629 1.14801 5.3818 2.24683C3.73731 3.34564 2.45559 4.90743 1.69871 6.73469C0.941833 8.56195 0.7438 10.5726 1.12965 12.5124C1.5155 14.4522 2.46791 16.2341 3.86644 17.6326C5.26496 19.0311 7.04679 19.9835 8.9866 20.3694C10.9264 20.7552 12.9371 20.5572 14.7643 19.8003C16.5916 19.0434 18.1534 17.7617 19.2522 16.1172C20.351 14.4727 20.9375 12.5393 20.9375 10.5615C20.9375 9.2483 20.6788 7.94794 20.1763 6.73469C19.6737 5.52143 18.9372 4.41904 18.0086 3.49045C17.08 2.56187 15.9776 1.82527 14.7643 1.32273C13.5511 0.820181 12.2507 0.561523 10.9375 0.561523ZM10.9375 18.5615C9.35525 18.5615 7.80853 18.0923 6.49294 17.2133C5.17735 16.3342 4.15197 15.0848 3.54647 13.623C2.94097 12.1612 2.78254 10.5526 3.09122 9.0008C3.3999 7.44895 4.16183 6.02349 5.28065 4.90467C6.39947 3.78585 7.82493 3.02392 9.37678 2.71524C10.9286 2.40656 12.5372 2.56499 13.999 3.17049C15.4608 3.77599 16.7102 4.80137 17.5893 6.11696C18.4683 7.43255 18.9375 8.97927 18.9375 10.5615C18.9375 12.6833 18.0946 14.7181 16.5944 16.2184C15.0941 17.7187 13.0592 18.5615 10.9375 18.5615Z" fill="#A8A8A8"/>
</svg>
