<svg width="77" height="76" viewBox="0 0 77 76" fill="none" xmlns="http://www.w3.org/2000/svg">
<g filter="url(#filter0_b_820_2665)">
<rect x="21" y="18.2329" width="55" height="56.7671" rx="12" fill="url(#paint0_radial_820_2665)" fill-opacity="0.2"/>
<rect x="21" y="18.2329" width="55" height="56.7671" rx="12" stroke="url(#paint1_linear_820_2665)" stroke-width="0.5"/>
</g>
<ellipse cx="48.3125" cy="18.9224" rx="19" ry="18.9224" fill="url(#paint2_linear_820_2665)"/>
<g filter="url(#filter1_b_820_2665)">
<path d="M33 8.09247C38.1185 8.09247 40.6778 8.09247 42.749 8.76269C46.3736 9.9356 49.3204 12.5435 50.9286 15.9284C49.223 15.1989 47.3055 14.8026 45.1053 14.5757C41.9933 14.2547 38.0839 14.2547 33.1178 14.2547H32.8822C27.9162 14.2547 24.0069 14.2547 20.895 14.5756C18.6946 14.8026 16.7771 15.1989 15.0714 15.9285C16.6796 12.5435 19.6263 9.9356 23.251 8.76269C25.3222 8.09247 27.8815 8.09247 33 8.09247Z" fill="#004EE7" fill-opacity="0.35"/>
<path fill-rule="evenodd" clip-rule="evenodd" d="M10.876 21.9536C8.25 25.5532 8.25 30.688 8.25 40.9576C8.25 51.2273 8.25 56.3621 10.876 59.9617C11.7241 61.1243 12.7507 62.1466 13.918 62.9912C17.5324 65.6065 22.6882 65.6065 33 65.6065C43.3118 65.6065 48.4676 65.6065 52.082 62.9912C53.2493 62.1466 54.2759 61.1243 55.124 59.9617C57.75 56.3621 57.75 51.2273 57.75 40.9576C57.75 30.688 57.75 25.5532 55.124 21.9536C54.2759 20.791 53.2493 19.7687 52.082 18.9241C52.0188 18.8783 51.9552 18.8334 51.891 18.7892C48.2857 16.3088 43.1314 16.3088 33 16.3088C22.8689 16.3088 17.7146 16.3088 14.1094 18.789C14.0451 18.8332 13.9813 18.8782 13.918 18.9241C12.7507 19.7687 11.7241 20.791 10.876 21.9536Z" fill="#004EE7" fill-opacity="0.35"/>
<path d="M50.7834 16.2678L51.6807 16.6515L51.2619 15.7701C49.6103 12.2937 46.5842 9.61586 42.8626 8.41157C40.7359 7.72338 38.1239 7.7234 33.0983 7.72343L33 7.72343L32.9016 7.72343C27.8761 7.7234 25.2641 7.72338 23.1374 8.41157C19.4157 9.61587 16.3897 12.2937 14.738 15.7701L14.3193 16.6516L15.2165 16.2678C16.8752 15.5583 18.7523 15.1677 20.9329 14.9427C24.0216 14.6241 27.9088 14.6237 32.8822 14.6237H33.1178C38.0913 14.6237 41.9787 14.6241 45.0674 14.9428C47.2478 15.1677 49.1248 15.5583 50.7834 16.2678ZM10.5779 21.7361C9.21128 23.6093 8.54306 25.8655 8.21137 28.9144C7.88096 31.9517 7.88096 35.8192 7.88096 40.934V40.9576V40.9813C7.88096 46.0961 7.88096 49.9636 8.21137 53.0009C8.54306 56.0498 9.21128 58.306 10.5779 60.1792C11.4488 61.3731 12.503 62.4229 13.7016 63.2902C15.5821 64.6509 17.8469 65.3163 20.9079 65.6465C23.9574 65.9756 27.8405 65.9756 32.9767 65.9756H33H33.0233C38.1595 65.9756 42.0426 65.9756 45.0921 65.6465C48.1531 65.3163 50.4179 64.6509 52.2984 63.2902C53.497 62.4229 54.5512 61.3731 55.4221 60.1792C56.7887 58.306 57.4569 56.0498 57.7886 53.0009C58.119 49.9636 58.119 46.0961 58.119 40.9813V40.9576V40.934C58.119 35.8192 58.119 31.9517 57.7886 28.9144C57.4569 25.8655 56.7887 23.6093 55.4221 21.7361C54.5512 20.5422 53.497 19.4924 52.2984 18.6251C52.2328 18.5776 52.1667 18.531 52.1002 18.4852C50.2252 17.1952 47.9653 16.5648 44.9307 16.2517C41.9061 15.9397 38.0692 15.9397 33.0222 15.9397H33H32.9778C27.931 15.9397 24.0941 15.9397 21.0696 16.2517C18.035 16.5647 15.7752 17.195 13.9002 18.4849C13.8335 18.5308 13.7673 18.5775 13.7016 18.6251C12.503 19.4924 11.4488 20.5422 10.5779 21.7361Z" stroke="url(#paint3_linear_820_2665)" stroke-width="0.738084" stroke-linecap="round"/>
</g>
<g filter="url(#filter2_d_820_2665)">
<path d="M22 44.3812C20.8609 44.3812 19.9375 45.3008 19.9375 46.4352C19.9375 47.5697 20.8609 48.4893 22 48.4893H44C45.1391 48.4893 46.0625 47.5697 46.0625 46.4352C46.0625 45.3008 45.1391 44.3812 44 44.3812H22Z" fill="url(#paint4_linear_820_2665)"/>
</g>
<defs>
<filter id="filter0_b_820_2665" x="12.3654" y="9.59827" width="72.2693" height="74.0364" filterUnits="userSpaceOnUse" color-interpolation-filters="sRGB">
<feFlood flood-opacity="0" result="BackgroundImageFix"/>
<feGaussianBlur in="BackgroundImage" stdDeviation="4.19232"/>
<feComposite in2="SourceAlpha" operator="in" result="effect1_backgroundBlur_820_2665"/>
<feBlend mode="normal" in="SourceGraphic" in2="effect1_backgroundBlur_820_2665" result="shape"/>
</filter>
<filter id="filter1_b_820_2665" x="-16.4883" y="-16.6456" width="98.9766" height="106.99" filterUnits="userSpaceOnUse" color-interpolation-filters="sRGB">
<feFlood flood-opacity="0" result="BackgroundImageFix"/>
<feGaussianBlur in="BackgroundImage" stdDeviation="12"/>
<feComposite in2="SourceAlpha" operator="in" result="effect1_backgroundBlur_820_2665"/>
<feBlend mode="normal" in="SourceGraphic" in2="effect1_backgroundBlur_820_2665" result="shape"/>
</filter>
<filter id="filter2_d_820_2665" x="16.9375" y="41.3812" width="42.125" height="20.1082" filterUnits="userSpaceOnUse" color-interpolation-filters="sRGB">
<feFlood flood-opacity="0" result="BackgroundImageFix"/>
<feColorMatrix in="SourceAlpha" type="matrix" values="0 0 0 0 0 0 0 0 0 0 0 0 0 0 0 0 0 0 127 0" result="hardAlpha"/>
<feOffset dx="5" dy="5"/>
<feGaussianBlur stdDeviation="4"/>
<feColorMatrix type="matrix" values="0 0 0 0 0.176471 0 0 0 0 0.556863 0 0 0 0 0.678431 0 0 0 0.5 0"/>
<feBlend mode="normal" in2="BackgroundImageFix" result="effect1_dropShadow_820_2665"/>
<feBlend mode="normal" in="SourceGraphic" in2="effect1_dropShadow_820_2665" result="shape"/>
</filter>
<radialGradient id="paint0_radial_820_2665" cx="0" cy="0" r="1" gradientUnits="userSpaceOnUse" gradientTransform="translate(21 18.2329) rotate(45.9058) scale(79.0412 79.0017)">
<stop stop-color="#FAFAFA"/>
<stop offset="1" stop-color="#F7F7F7" stop-opacity="0"/>
</radialGradient>
<linearGradient id="paint1_linear_820_2665" x1="48.5" y1="18.2329" x2="48.5" y2="75" gradientUnits="userSpaceOnUse">
<stop stop-color="white"/>
<stop offset="1" stop-color="white" stop-opacity="0"/>
</linearGradient>
<linearGradient id="paint2_linear_820_2665" x1="29.3125" y1="37.8447" x2="67.9702" y2="0.684214" gradientUnits="userSpaceOnUse">
<stop stop-color="#004EE7"/>
<stop offset="0.857292" stop-color="#5F95FF"/>
</linearGradient>
<linearGradient id="paint3_linear_820_2665" x1="8.25" y1="8.09247" x2="65.1428" y2="57.0081" gradientUnits="userSpaceOnUse">
<stop stop-color="white" stop-opacity="0.25"/>
<stop offset="1" stop-color="white" stop-opacity="0"/>
</linearGradient>
<linearGradient id="paint4_linear_820_2665" x1="33.22" y1="49.3645" x2="34.9938" y2="38.307" gradientUnits="userSpaceOnUse">
<stop stop-color="white"/>
<stop offset="1" stop-color="white" stop-opacity="0.2"/>
</linearGradient>
</defs>
</svg>
