<svg width="223" height="184" viewBox="0 0 223 184" fill="none" xmlns="http://www.w3.org/2000/svg">
<path d="M222.163 183.021C222.163 183.092 172.568 183.148 111.404 183.148C50.2399 183.148 0.63501 183.092 0.63501 183.021C0.63501 182.951 50.2211 182.899 111.404 182.899C172.587 182.899 222.163 182.956 222.163 183.021Z" fill="#263238"/>
<path d="M193.327 61.8128L27.6623 61.8128C23.8813 61.8128 20.8162 64.8779 20.8162 68.6589L20.8162 173.573C20.8162 177.354 23.8813 180.419 27.6623 180.419H193.327C197.108 180.419 200.173 177.354 200.173 173.573V68.6589C200.173 64.8779 197.108 61.8128 193.327 61.8128Z" fill="#455A64"/>
<path d="M13.7993 172.759H208.122V174.949C208.122 177.12 207.259 179.202 205.724 180.737C204.189 182.272 202.107 183.134 199.936 183.134H21.9846C19.8137 183.134 17.7318 182.272 16.1967 180.737C14.6617 179.202 13.7993 177.12 13.7993 174.949V172.759Z" fill="#455A64"/>
<path d="M194.855 66.5258L25.6289 66.5258L25.6289 166.69H194.855V66.5258Z" fill="#263238"/>
<path d="M92.8083 171.651L95.2235 175.485H129.153L131.39 171.651H92.8083Z" fill="#263238"/>
<path d="M190.182 69.9179L30.649 69.9179C29.8005 69.9179 29.1125 70.6058 29.1125 71.4544L29.1125 164.833C29.1125 165.682 29.8005 166.37 30.649 166.37H190.182C191.03 166.37 191.718 165.682 191.718 164.833V71.4544C191.718 70.6058 191.03 69.9179 190.182 69.9179Z" fill="#EBEBEB"/>
<path d="M191.542 166.51H28.936L29.1099 77.1254L191.542 77.1254V166.51Z" fill="#FAFAFA"/>
<path d="M42.4423 73.6433C42.4414 73.8996 42.3646 74.1499 42.2215 74.3625C42.0784 74.5752 41.8756 74.7406 41.6385 74.8381C41.4015 74.9355 41.1409 74.9605 40.8896 74.91C40.6384 74.8594 40.4077 74.7355 40.2268 74.554C40.0459 74.3724 39.9229 74.1413 39.8732 73.8899C39.8236 73.6384 39.8495 73.3779 39.9478 73.1412C40.0461 72.9045 40.2123 72.7023 40.4255 72.56C40.6386 72.4177 40.8892 72.3417 41.1455 72.3417C41.3162 72.3417 41.4852 72.3754 41.6429 72.4409C41.8005 72.5064 41.9437 72.6023 42.0642 72.7232C42.1847 72.8442 42.2801 72.9877 42.345 73.1456C42.4099 73.3035 42.443 73.4726 42.4423 73.6433V73.6433Z" fill="#263238"/>
<path d="M34.578 73.6442C34.578 73.9018 34.5015 74.1536 34.3583 74.3678C34.2151 74.5819 34.0115 74.7487 33.7734 74.8471C33.5353 74.9455 33.2734 74.971 33.0208 74.9204C32.7682 74.8698 32.5362 74.7453 32.3544 74.5628C32.1726 74.3803 32.049 74.148 31.9993 73.8952C31.9496 73.6424 31.9761 73.3806 32.0753 73.1428C32.1745 72.9051 32.3421 72.7021 32.5567 72.5597C32.7714 72.4172 33.0235 72.3417 33.2811 72.3426C33.4518 72.3426 33.6208 72.3763 33.7785 72.4418C33.9361 72.5072 34.0793 72.6032 34.1998 72.7241C34.3203 72.845 34.4157 72.9885 34.4806 73.1464C34.5455 73.3043 34.5786 73.4735 34.578 73.6442V73.6442Z" fill="#263238"/>
<path d="M38.3554 73.6441C38.3545 73.9004 38.2777 74.1507 38.1346 74.3633C37.9915 74.576 37.7887 74.7414 37.5516 74.8389C37.3146 74.9363 37.054 74.9613 36.8027 74.9108C36.5514 74.8602 36.3208 74.7363 36.1399 74.5548C35.959 74.3732 35.836 74.1421 35.7863 73.8907C35.7366 73.6392 35.7626 73.3787 35.8609 73.142C35.9592 72.9053 36.1254 72.7031 36.3386 72.5608C36.5517 72.4185 36.8023 72.3425 37.0586 72.3425C37.2293 72.3425 37.3983 72.3762 37.5559 72.4417C37.7136 72.5072 37.8568 72.6031 37.9773 72.724C38.0977 72.845 38.1932 72.9885 38.2581 73.1464C38.323 73.3042 38.3561 73.4734 38.3554 73.6441V73.6441Z" fill="#263238"/>
<path d="M198.627 171.651C198.627 171.712 158.819 171.763 109.722 171.763C60.6242 171.763 20.8115 171.712 20.8115 171.651C20.8115 171.59 60.6101 171.533 109.722 171.533C158.833 171.533 198.627 171.58 198.627 171.651Z" fill="#263238"/>
<path d="M174.416 115.609C172.15 117.562 170.468 120.103 169.556 122.953C168.644 125.802 168.537 128.847 169.247 131.754C167.128 131.335 164.939 131.444 162.872 132.07C160.805 132.696 158.923 133.82 157.392 135.343C155.861 136.866 154.727 138.742 154.091 140.806C153.454 142.87 153.334 145.059 153.741 147.18C149.085 143.975 141.966 145.173 138.616 149.731C138.545 146.724 138.428 143.552 136.849 140.991C135.27 138.43 131.68 136.852 129.148 138.477C130.108 137.384 130.691 136.011 130.811 134.56C130.931 133.11 130.583 131.66 129.816 130.423C129.05 129.186 127.906 128.228 126.554 127.69C125.202 127.152 123.713 127.063 122.306 127.435C122.236 123.827 119.957 98.2748 118.077 76.7168H102.026C100.147 97.8989 97.9996 122.229 97.9291 125.748C96.5187 125.368 95.0232 125.453 93.6648 125.99C92.3065 126.528 91.1579 127.489 90.3899 128.732C89.6218 129.974 89.2753 131.432 89.4019 132.887C89.5284 134.342 90.1213 135.718 91.0924 136.809C88.5598 135.184 84.984 136.767 83.3911 139.323C81.7982 141.879 81.6901 145.056 81.6197 148.063C78.2694 143.51 71.1555 142.307 66.4943 145.512C66.9014 143.39 66.7814 141.202 66.1448 139.138C65.5083 137.074 64.3746 135.198 62.8435 133.675C61.3124 132.152 59.4306 131.028 57.3635 130.402C55.2964 129.776 53.1073 129.667 50.9884 130.085C51.7413 127.179 51.6538 124.119 50.7362 121.261C49.8185 118.403 48.1085 115.863 45.8047 113.939C43.5009 112.014 40.6981 110.782 37.7222 110.388C34.7462 109.993 31.7193 110.451 28.9934 111.709V166.463L191.242 166.463V113.367C188.504 112.151 185.482 111.716 182.512 112.112C179.542 112.507 176.74 113.718 174.416 115.609V115.609Z" fill="#0157FF"/>
<g opacity="0.8">
<path opacity="0.8" d="M174.424 115.61C172.158 117.563 170.476 120.104 169.564 122.954C168.652 125.803 168.545 128.849 169.255 131.755C167.136 131.337 164.947 131.445 162.88 132.071C160.813 132.697 158.931 133.821 157.4 135.344C155.869 136.867 154.735 138.743 154.098 140.807C153.462 142.871 153.342 145.06 153.749 147.181C149.092 143.976 141.974 145.174 138.624 149.732C138.553 146.725 138.436 143.553 136.857 140.992C135.278 138.432 131.688 136.853 129.156 138.478C130.115 137.385 130.699 136.012 130.819 134.561C130.939 133.111 130.591 131.661 129.824 130.424C129.058 129.187 127.914 128.229 126.562 127.691C125.21 127.153 123.721 127.064 122.314 127.436C122.244 123.828 119.965 98.2758 118.085 76.7178H102.034C100.155 97.8999 98.0074 122.23 97.9369 125.75C96.5265 125.369 95.031 125.454 93.6727 125.991C92.3143 126.529 91.1657 127.49 90.3977 128.733C89.6296 129.975 89.2831 131.433 89.4097 132.888C89.5363 134.343 90.1292 135.719 91.1002 136.81C88.5676 135.185 84.9918 136.768 83.3989 139.324C81.806 141.88 81.698 145.057 81.6275 148.064C78.2772 143.511 71.1633 142.308 66.5021 145.513C66.9092 143.392 66.7892 141.203 66.1526 139.139C65.5161 137.075 64.3824 135.199 62.8513 133.676C61.3202 132.153 59.4384 131.029 57.3713 130.403C55.3043 129.777 53.1151 129.668 50.9962 130.086C51.7491 127.18 51.6616 124.12 50.744 121.262C49.8264 118.404 48.1163 115.864 45.8125 113.94C43.5087 112.015 40.706 110.783 37.73 110.389C34.754 109.994 31.7271 110.452 29.0012 111.71V166.464L191.25 166.464V113.368C188.512 112.152 185.49 111.717 182.52 112.113C179.55 112.508 176.748 113.719 174.424 115.61V115.61Z" fill="white"/>
</g>
<path d="M173.429 155.53C170.518 153.574 167.235 152.236 163.786 151.6C160.337 150.963 156.793 151.041 153.375 151.828C149.957 152.616 146.737 154.096 143.914 156.178C141.09 158.26 138.725 160.899 136.962 163.931C135.535 162.003 133.67 160.441 131.521 159.374C131.673 158.968 131.8 158.554 131.902 158.133C132.317 156.333 132.267 154.456 131.754 152.681C131.242 150.906 130.285 149.291 128.975 147.989C127.664 146.687 126.042 145.741 124.263 145.241C122.485 144.741 120.608 144.703 118.811 145.132L114.009 76.7175H107.712V139.629C103.812 140.226 101.092 144.845 102.468 148.557C101.11 148.768 99.8227 149.306 98.7178 150.125C97.6129 150.943 96.7232 152.018 96.125 153.256C95.7491 154.064 95.6928 155.774 96.017 157.71C93.6398 157.754 91.3039 158.339 89.1869 159.421C87.0699 160.503 85.2276 162.054 83.8002 163.955C82.0377 160.922 79.6718 158.283 76.8487 156.201C74.0255 154.12 70.8053 152.639 67.3872 151.852C63.969 151.064 60.4257 150.986 56.9762 151.623C53.5268 152.26 50.2447 153.598 47.333 155.553C45.6837 147.566 36.7514 141.889 28.8198 143.807V166.61L102.022 166.516C102.525 166.659 103.045 166.732 103.568 166.732L121.461 166.52L191.975 166.61V143.764C184.025 141.866 175.093 147.542 173.429 155.53Z" fill="#0157FF"/>
<g opacity="0.6">
<path opacity="0.6" d="M173.421 155.529C170.51 153.573 167.228 152.235 163.778 151.599C160.329 150.962 156.785 151.04 153.367 151.827C149.949 152.615 146.729 154.095 143.906 156.177C141.083 158.259 138.717 160.898 136.954 163.93C135.527 162.002 133.662 160.44 131.513 159.373C131.665 158.967 131.793 158.553 131.894 158.132C132.309 156.332 132.259 154.455 131.747 152.68C131.234 150.905 130.278 149.29 128.967 147.988C127.656 146.686 126.034 145.74 124.256 145.24C122.477 144.74 120.6 144.702 118.803 145.131L114.001 76.7164H107.704V139.628C103.804 140.225 101.084 144.844 102.461 148.556C101.102 148.767 99.8149 149.305 98.71 150.124C97.6051 150.942 96.7154 152.017 96.1172 153.255C95.7413 154.063 95.685 155.773 96.0092 157.709C93.632 157.753 91.2961 158.338 89.1791 159.42C87.0621 160.502 85.2198 162.052 83.7924 163.954C82.0299 160.921 79.664 158.282 76.8408 156.2C74.0177 154.119 70.7975 152.638 67.3794 151.851C63.9612 151.063 60.4178 150.985 56.9684 151.622C53.519 152.259 50.2369 153.597 47.3252 155.552C45.6759 147.565 36.7435 141.888 28.812 143.806V166.609L102.014 166.515C102.517 166.658 103.037 166.731 103.56 166.731L121.453 166.519L191.968 166.609V143.763C184.017 141.865 175.085 147.541 173.421 155.529Z" fill="white"/>
</g>
<path d="M104.004 75.3005C100.395 77.0155 98.76 81.9586 100.64 85.4874C101.382 86.8971 102.594 88.1046 102.754 89.674C102.998 92.0798 100.724 93.9593 100.019 96.2523C99.6618 97.6266 99.8494 99.0859 100.543 100.325C101.237 101.564 102.382 102.487 103.741 102.901C104.977 103.225 106.457 103.169 107.284 104.142C108.341 105.382 107.575 107.431 108.482 108.798C109.295 110.024 111.198 110.085 112.424 109.268C113.65 108.45 114.327 107.036 114.811 105.645C115.295 104.254 115.657 102.793 116.493 101.581C117.433 100.251 118.819 99.3394 119.937 98.1694C122.625 95.3501 123.447 91.1212 122.841 87.2636C122.235 83.4059 120.37 79.8771 118.26 76.602" fill="#0157FF"/>
<g opacity="0.3">
<path opacity="0.3" d="M104.004 75.3005C100.395 77.0156 98.76 81.9587 100.64 85.4875C101.382 86.8971 102.594 88.1047 102.754 89.6741C102.998 92.0799 100.724 93.9594 100.019 96.2524C99.6618 97.6267 99.8494 99.086 100.543 100.325C101.237 101.564 102.382 102.487 103.741 102.901C104.977 103.225 106.457 103.169 107.284 104.142C108.341 105.382 107.575 107.431 108.482 108.798C109.295 110.024 111.198 110.086 112.424 109.268C113.65 108.45 114.327 107.036 114.811 105.645C115.295 104.254 115.657 102.793 116.493 101.581C117.433 100.251 118.819 99.3395 119.937 98.1695C122.625 95.3502 123.447 91.1213 122.841 87.2636C122.235 83.4059 120.37 79.8771 118.26 76.6021" fill="white"/>
</g>
<path d="M107.171 77.3297C104.112 78.6783 102.773 82.9213 104.502 85.7875C105.559 87.5354 107.608 89.1142 107.11 91.0924C106.772 92.4363 105.334 93.2585 104.92 94.5789C104.371 96.3362 106.034 98.2017 107.867 98.4225C109.699 98.6433 111.466 97.666 112.852 96.449C117.649 92.2201 118.819 83.9503 115.826 78.3071" fill="#0157FF"/>
<path d="M122.946 50.4348C122.946 50.4348 138.659 60.8284 136.944 78.8106L122.5 72.3263L122.946 50.4348Z" fill="#0157FF"/>
<path d="M96.8396 71.9645L100.411 77.8803H118.929L122.5 72.3029L96.8396 71.9645Z" fill="white"/>
<path d="M108.704 12.2753C105.18 12.5114 101.883 14.0963 99.4973 16.7005C97.1118 19.3047 95.8216 22.728 95.8948 26.2588L96.8346 72.3068H122.495L123.35 26.2353C123.386 24.3333 123.026 22.4445 122.294 20.6887C121.562 18.9329 120.472 17.3485 119.095 16.0359C117.718 14.7233 116.083 13.7113 114.295 13.0639C112.506 12.4165 110.602 12.148 108.704 12.2753Z" fill="#0157FF"/>
<g opacity="0.8">
<path opacity="0.8" d="M108.704 12.2753C105.18 12.5114 101.883 14.0963 99.4973 16.7005C97.1118 19.3047 95.8216 22.728 95.8948 26.2588L96.8346 72.3068H122.495L123.35 26.2353C123.386 24.3333 123.026 22.4445 122.294 20.6887C121.562 18.9329 120.472 17.3485 119.095 16.0359C117.718 14.7233 116.083 13.7113 114.295 13.0639C112.506 12.4165 110.602 12.148 108.704 12.2753Z" fill="white"/>
</g>
<path d="M96.3702 50.4348C96.3702 50.4348 80.6763 60.8285 82.3961 78.8107L96.8401 72.317L96.3702 50.4348Z" fill="#0157FF"/>
<path d="M96.0366 24.7319C101.464 19.9815 118.497 20.0848 123.069 23.9519C121.894 6.8578 108.841 0.458069 108.841 0.458069C95.4869 9.70525 96.0366 24.7319 96.0366 24.7319Z" fill="#0157FF"/>
<path d="M108.845 0.463318L109 0.604282C109.099 0.698258 109.249 0.834521 109.437 1.01777L110.151 1.6944L110.621 2.12668L111.091 2.65295C111.429 3.02415 111.815 3.43294 112.223 3.89342L113.473 5.45342C113.685 5.74004 113.896 6.05016 114.117 6.36028C114.338 6.6704 114.587 6.98991 114.784 7.34232C115.202 8.03774 115.668 8.75195 116.067 9.57424C116.984 11.3219 117.695 13.1699 118.186 15.0812C118.463 16.1438 118.669 17.2238 118.802 18.314C118.882 18.8778 118.924 19.4511 119.004 20.0196C119.055 20.6102 119.075 21.203 119.065 21.7957C119.065 26.565 119.004 31.8088 118.943 37.3017C118.811 48.3156 118.656 58.2817 118.539 65.4943C118.477 69.0983 118.426 72.0162 118.388 74.0367C118.388 75.0422 118.351 75.8269 118.341 76.3861C118.341 76.6492 118.341 76.856 118.341 76.9875C118.341 77.1191 118.341 77.1943 118.341 77.1943C118.341 77.1943 118.341 77.1238 118.341 76.9875C118.341 76.8513 118.341 76.6492 118.341 76.3861C118.341 75.8504 118.341 75.0657 118.365 74.0367C118.388 72.0162 118.426 69.0983 118.468 65.4943C118.562 58.2723 118.689 48.3062 118.835 37.3017C118.896 31.7947 118.966 26.5509 118.966 21.7957C118.979 21.2093 118.959 20.6226 118.905 20.0384C118.83 19.4605 118.788 18.8919 118.712 18.3328C118.581 17.2458 118.377 16.169 118.102 15.1094C117.616 13.2062 116.915 11.3648 116.011 9.62123C115.588 8.79894 115.123 8.08473 114.695 7.38931C114.488 7.0369 114.225 6.72678 114.032 6.40727C113.84 6.08775 113.61 5.78703 113.398 5.5004L112.158 3.93571C111.754 3.46584 111.373 3.06644 111.035 2.69054L110.565 2.15958L110.118 1.72259L109.414 1.03657L108.986 0.61368L108.845 0.463318Z" fill="#263238"/>
<path d="M114.845 36.3766C115.652 32.7225 113.553 29.1526 110.157 28.4029C106.762 27.6532 103.355 30.0077 102.548 33.6618C101.742 37.3159 103.84 40.8858 107.236 41.6355C110.632 42.3852 114.038 40.0307 114.845 36.3766Z" fill="#FAFAFA"/>
<path d="M110.153 28.4018C110.118 28.407 110.081 28.407 110.045 28.4018L109.74 28.3595L109.514 28.3219H109.237H108.918C108.8 28.3219 108.678 28.3219 108.551 28.3219C108.265 28.3397 107.981 28.3774 107.701 28.4347C107.367 28.5055 107.04 28.6045 106.723 28.7307C105.95 29.0395 105.242 29.4923 104.637 30.0652C103.904 30.7567 103.332 31.6003 102.96 32.5367C102.856 32.7922 102.77 33.0544 102.701 33.3214C102.668 33.4577 102.626 33.594 102.593 33.7302L102.523 34.1531L102.485 34.3693V34.5854C102.485 34.7311 102.461 34.8814 102.452 35.0271C102.443 35.1727 102.452 35.3231 102.452 35.4735V35.699L102.476 35.9293C102.599 37.2059 103.089 38.4197 103.885 39.4251C104.724 40.5179 105.921 41.28 107.266 41.5773C108.611 41.8747 110.018 41.6883 111.239 41.0509C112.379 40.4666 113.328 39.5683 113.973 38.4619L114.091 38.2692L114.19 38.0625L114.387 37.6631L114.542 37.2496L114.617 37.0429L114.678 36.8314L114.791 36.4179C114.824 36.2817 114.838 36.1407 114.866 36.0044C114.913 35.7324 114.945 35.4578 114.96 35.1821C115.023 34.1759 114.862 33.1683 114.49 32.2313C114.06 31.1346 113.337 30.1772 112.399 29.4637C112.168 29.2918 111.927 29.1348 111.676 28.9939C111.558 28.9375 111.455 28.8717 111.352 28.8247L111.056 28.7025L110.797 28.5992L110.581 28.5334L110.28 28.4441C110.246 28.4353 110.213 28.4227 110.182 28.4065H110.285L110.586 28.4817L110.811 28.5428L111.07 28.6415L111.37 28.7589L111.699 28.9234C111.957 29.0638 112.205 29.2207 112.442 29.3933C112.716 29.6011 112.976 29.8288 113.217 30.0746C113.801 30.681 114.264 31.394 114.58 32.1749C114.968 33.1228 115.14 34.1454 115.082 35.1681C115.071 35.4485 115.041 35.7279 114.993 36.0044C114.965 36.1454 114.951 36.2864 114.918 36.4273C114.885 36.5683 114.843 36.7092 114.8 36.8502L114.744 37.0617L114.669 37.2684L114.509 37.6913L114.312 38.1001L114.213 38.3115L114.091 38.5089C113.439 39.6397 112.472 40.557 111.309 41.1496C110.062 41.8043 108.623 41.9969 107.247 41.6934C105.872 41.3898 104.647 40.6097 103.791 39.4909C102.987 38.4612 102.498 37.2212 102.382 35.9199V35.6896V35.4594C102.382 35.309 102.382 35.154 102.382 34.9895C102.382 34.825 102.382 34.6888 102.419 34.5196V34.2988L102.452 34.0779C102.48 33.937 102.504 33.7913 102.527 33.6503C102.551 33.5094 102.602 33.3731 102.64 33.2322C102.709 32.9612 102.799 32.6958 102.908 32.4381C103.286 31.4862 103.872 30.6306 104.623 29.9336C105.239 29.3584 105.96 28.9069 106.747 28.6039C107.068 28.4789 107.4 28.3815 107.738 28.3125C108.022 28.2583 108.309 28.2237 108.598 28.2092C108.73 28.2092 108.852 28.2092 108.969 28.2092H109.293H109.571L109.796 28.2515L110.102 28.3078L110.153 28.4018Z" fill="#263238"/>
<path d="M102.199 34.0022C102.199 34.0821 100.752 34.0445 99.0086 34.3593C97.2654 34.6741 95.9215 35.2004 95.8933 35.1252C96.1519 34.9371 96.4413 34.7956 96.7485 34.707C98.1873 34.1671 99.7132 33.8963 101.25 33.9082C101.569 33.8878 101.89 33.9195 102.199 34.0022V34.0022Z" fill="#263238"/>
<path d="M122.947 33.9933C122.559 33.9958 122.172 33.9596 121.791 33.8852C121.086 33.8006 120.109 33.6878 119.028 33.608C117.948 33.5281 116.966 33.5093 116.251 33.4952C115.865 33.5158 115.478 33.4985 115.095 33.4435C115.471 33.346 115.859 33.3017 116.247 33.3119C117.186 33.2693 118.128 33.2819 119.066 33.3495C119.996 33.4142 120.922 33.5319 121.838 33.7019C122.218 33.7528 122.591 33.8506 122.947 33.9933V33.9933Z" fill="#263238"/>
<path d="M123.087 60.3438C122.997 60.3562 122.905 60.3562 122.815 60.3438L122.039 60.2828L119.187 60.0666C116.781 59.8975 113.45 59.733 109.79 59.7377C106.129 59.7424 102.779 59.9116 100.369 60.0854L97.5212 60.311L96.7459 60.3673C96.6556 60.3806 96.5637 60.3806 96.4734 60.3673C96.5598 60.3368 96.6498 60.3179 96.7412 60.311L97.5118 60.2029C98.179 60.1136 99.1517 60.0055 100.331 59.8975C102.737 59.6719 106.078 59.4746 109.766 59.4699C113.455 59.4652 116.814 59.6578 119.197 59.8787C120.404 59.9867 121.372 60.0901 122.044 60.1794L122.815 60.2828C122.908 60.2908 123 60.3113 123.087 60.3438Z" fill="#263238"/>
<path d="M102.881 40.6041C102.881 40.6417 102.721 40.6558 102.613 40.839C102.582 40.8862 102.561 40.9396 102.552 40.9955C102.543 41.0515 102.547 41.1087 102.562 41.1633C102.586 41.2211 102.626 41.2706 102.678 41.3056C102.73 41.3407 102.791 41.3598 102.853 41.3606C102.916 41.3701 102.98 41.3609 103.038 41.3341C103.095 41.3074 103.144 41.2643 103.177 41.2102C103.201 41.1586 103.213 41.1025 103.213 41.0458C103.213 40.9891 103.201 40.933 103.177 40.8813C103.097 40.684 102.942 40.6464 102.952 40.6088C102.961 40.5712 103.168 40.5383 103.342 40.7921C103.391 40.8678 103.422 40.954 103.431 41.0438C103.441 41.1336 103.43 41.2244 103.398 41.3089C103.351 41.4143 103.271 41.5017 103.17 41.5583C103.07 41.615 102.954 41.6379 102.839 41.6237C102.74 41.6185 102.645 41.5855 102.564 41.5286C102.483 41.4716 102.42 41.393 102.382 41.3017C102.343 41.2105 102.331 41.1103 102.348 41.0127C102.364 40.915 102.407 40.8239 102.472 40.7498C102.679 40.5007 102.9 40.5712 102.881 40.6041Z" fill="#263238"/>
<path d="M108.473 43.616C108.473 43.6583 108.313 43.6724 108.205 43.8556C108.174 43.9023 108.154 43.9549 108.145 44.0099C108.136 44.065 108.139 44.1212 108.153 44.1752C108.176 44.2342 108.216 44.2851 108.268 44.3211C108.32 44.3571 108.381 44.3767 108.445 44.3772C108.508 44.3856 108.572 44.3754 108.63 44.3479C108.687 44.3203 108.736 44.2767 108.769 44.2221C108.791 44.171 108.802 44.1158 108.802 44.06C108.802 44.0043 108.791 43.9491 108.769 43.8979C108.684 43.7006 108.529 43.663 108.539 43.6254C108.548 43.5878 108.755 43.5549 108.929 43.8087C108.978 43.8836 109.008 43.969 109.018 44.058C109.028 44.147 109.017 44.237 108.985 44.3208C108.938 44.4266 108.858 44.5145 108.758 44.572C108.657 44.6294 108.541 44.6534 108.426 44.6403C108.322 44.6391 108.222 44.6073 108.136 44.5491C108.051 44.4909 107.984 44.4088 107.945 44.3131C107.906 44.2173 107.896 44.1122 107.916 44.0108C107.937 43.9094 107.986 43.8162 108.059 43.7429C108.271 43.5173 108.492 43.569 108.473 43.616Z" fill="#263238"/>
<path d="M114.643 41.0459C114.643 41.0882 114.487 41.1023 114.375 41.2855C114.344 41.3322 114.324 41.3848 114.315 41.4398C114.306 41.4948 114.309 41.5511 114.323 41.6051C114.348 41.6638 114.389 41.7141 114.441 41.7499C114.494 41.7858 114.555 41.8057 114.619 41.8071C114.682 41.8164 114.746 41.8066 114.803 41.7789C114.86 41.7513 114.907 41.707 114.939 41.652C114.961 41.6009 114.972 41.5457 114.972 41.4899C114.972 41.4342 114.961 41.379 114.939 41.3278C114.859 41.1305 114.699 41.0929 114.708 41.0506C114.718 41.0083 114.924 40.9848 115.098 41.2385C115.149 41.3126 115.181 41.3979 115.192 41.4871C115.203 41.5763 115.191 41.6668 115.159 41.7507C115.11 41.8559 115.03 41.9432 114.929 42.0005C114.827 42.0578 114.711 42.0821 114.596 42.0702C114.48 42.0654 114.369 42.0242 114.279 41.9524C114.189 41.8806 114.124 41.7821 114.093 41.6708C114.074 41.583 114.077 41.4919 114.101 41.4053C114.124 41.3186 114.168 41.2389 114.229 41.1728C114.441 40.9472 114.661 41.0177 114.643 41.0459Z" fill="#263238"/>
<path d="M116.652 36.4367C116.652 36.4743 116.492 36.4884 116.379 36.6716C116.349 36.7195 116.33 36.773 116.322 36.8288C116.314 36.8846 116.317 36.9415 116.332 36.9958C116.355 37.0549 116.395 37.1057 116.447 37.1418C116.499 37.1778 116.56 37.1974 116.624 37.1979C116.686 37.2059 116.75 37.1955 116.806 37.168C116.863 37.1405 116.911 37.097 116.943 37.0428C116.965 36.9916 116.977 36.9365 116.977 36.8807C116.977 36.825 116.965 36.7698 116.943 36.7186C116.863 36.5213 116.708 36.479 116.713 36.4414C116.718 36.4038 116.929 36.3756 117.108 36.6293C117.157 36.7041 117.188 36.7895 117.198 36.8786C117.207 36.9677 117.196 37.0578 117.164 37.1415C117.116 37.2464 117.036 37.3333 116.936 37.3899C116.835 37.4465 116.719 37.4697 116.605 37.4563C116.489 37.4518 116.377 37.4107 116.286 37.339C116.195 37.2672 116.129 37.1685 116.097 37.0569C116.079 36.969 116.082 36.8781 116.106 36.7915C116.129 36.705 116.173 36.6252 116.234 36.5589C116.445 36.338 116.666 36.4085 116.652 36.4367Z" fill="#263238"/>
<path d="M100.844 35.9903C100.844 36.0279 100.684 36.042 100.576 36.2252C100.546 36.2729 100.526 36.3262 100.517 36.382C100.508 36.4377 100.511 36.4947 100.525 36.5494C100.548 36.6081 100.588 36.6586 100.64 36.6946C100.692 36.7305 100.753 36.7503 100.816 36.7515C100.879 36.7587 100.943 36.748 101 36.7206C101.058 36.6931 101.106 36.6501 101.14 36.5964C101.164 36.5455 101.176 36.4902 101.176 36.4343C101.176 36.3784 101.164 36.3231 101.14 36.2722C101.06 36.0748 100.905 36.0326 100.915 35.995C100.924 35.9574 101.131 35.9292 101.305 36.1829C101.354 36.2577 101.385 36.3431 101.395 36.4322C101.405 36.5213 101.393 36.6114 101.361 36.6951C101.314 36.8004 101.234 36.8878 101.133 36.9445C101.033 37.0011 100.917 37.0241 100.802 37.0099C100.686 37.0054 100.575 36.9643 100.483 36.8926C100.392 36.8208 100.326 36.7221 100.294 36.6105C100.276 36.5223 100.279 36.4309 100.304 36.3442C100.328 36.2575 100.374 36.178 100.435 36.1124C100.642 35.8916 100.863 35.9621 100.844 35.9903Z" fill="#263238"/>
<path d="M114.633 29.6654C114.633 29.6278 114.793 29.6137 114.901 29.4304C114.932 29.3833 114.953 29.3299 114.962 29.274C114.971 29.218 114.967 29.1608 114.952 29.1062C114.928 29.0482 114.888 28.9984 114.836 28.9626C114.785 28.9268 114.724 28.9065 114.661 28.9042C114.598 28.8961 114.535 28.9065 114.478 28.9341C114.421 28.9616 114.374 29.0051 114.341 29.0592C114.317 29.1098 114.304 29.1652 114.304 29.2213C114.304 29.2775 114.317 29.3329 114.341 29.3834C114.421 29.5808 114.576 29.6231 114.567 29.6607C114.558 29.6983 114.351 29.7265 114.177 29.4727C114.128 29.398 114.097 29.3125 114.087 29.2235C114.077 29.1344 114.089 29.0443 114.121 28.9606C114.168 28.8552 114.248 28.7678 114.348 28.7112C114.449 28.6545 114.565 28.6316 114.68 28.6457C114.783 28.647 114.884 28.6787 114.969 28.7369C115.055 28.7951 115.121 28.8773 115.16 28.973C115.2 29.0688 115.21 29.1739 115.189 29.2753C115.169 29.3767 115.119 29.4699 115.046 29.5432C114.835 29.7687 114.614 29.6936 114.633 29.6654Z" fill="#263238"/>
<path d="M108.464 26.9308C108.464 26.8932 108.624 26.8791 108.732 26.6959C108.762 26.6482 108.783 26.5949 108.791 26.5391C108.8 26.4833 108.798 26.4264 108.784 26.3717C108.759 26.3133 108.718 26.2633 108.665 26.2275C108.613 26.1917 108.551 26.1716 108.488 26.1696C108.425 26.1616 108.362 26.1719 108.305 26.1995C108.248 26.227 108.201 26.2705 108.168 26.3247C108.146 26.3758 108.135 26.431 108.135 26.4868C108.135 26.5425 108.146 26.5977 108.168 26.6489C108.248 26.8509 108.408 26.8885 108.398 26.9261C108.389 26.9637 108.182 26.9966 108.008 26.7382C107.946 26.6548 107.91 26.5547 107.905 26.4508C107.9 26.3468 107.926 26.2437 107.98 26.1548C108.035 26.0659 108.114 25.9951 108.209 25.9517C108.303 25.9083 108.409 25.8942 108.511 25.9112C108.627 25.916 108.737 25.9572 108.828 26.029C108.918 26.1007 108.983 26.1993 109.014 26.3106C109.032 26.3984 109.029 26.4894 109.006 26.576C108.982 26.6625 108.938 26.7423 108.878 26.8086C108.666 27.0342 108.445 26.9637 108.464 26.9308Z" fill="#263238"/>
<path d="M102.368 29.6659C102.368 29.6283 102.528 29.6142 102.636 29.4309C102.666 29.3833 102.686 29.3299 102.695 29.2742C102.704 29.2184 102.702 29.1614 102.688 29.1067C102.663 29.0483 102.621 28.9983 102.569 28.9625C102.517 28.9268 102.455 28.9067 102.392 28.9046C102.329 28.8966 102.265 28.907 102.209 28.9345C102.152 28.9621 102.104 29.0056 102.072 29.0597C102.05 29.1109 102.039 29.1661 102.039 29.2218C102.039 29.2776 102.05 29.3327 102.072 29.3839C102.152 29.5813 102.312 29.6236 102.302 29.6612C102.293 29.6987 102.086 29.7269 101.912 29.4732C101.85 29.3899 101.814 29.2898 101.809 29.1858C101.804 29.0819 101.83 28.9788 101.884 28.8898C101.938 28.8009 102.018 28.7302 102.112 28.6868C102.207 28.6434 102.312 28.6292 102.415 28.6462C102.53 28.651 102.641 28.6922 102.731 28.764C102.822 28.8358 102.887 28.9344 102.918 29.0456C102.936 29.1335 102.933 29.2244 102.909 29.311C102.886 29.3976 102.842 29.4773 102.782 29.5437C102.57 29.7692 102.349 29.694 102.368 29.6659Z" fill="#263238"/>
<path d="M107.683 52.3227L108.233 79.8153C108.241 80.197 108.401 80.5598 108.677 80.8241C108.952 81.0883 109.322 81.2325 109.703 81.2249V81.2249C110.075 81.2165 110.428 81.0653 110.691 80.8028C110.953 80.5402 111.105 80.1865 111.113 79.8153C111.169 74.8628 111.353 58.2009 111.381 52.2946C111.382 52.028 111.325 51.7645 111.215 51.522C111.104 51.2794 110.942 51.0637 110.741 50.8896C110.539 50.7155 110.302 50.5871 110.046 50.5133C109.789 50.4395 109.52 50.422 109.257 50.462C108.814 50.5291 108.41 50.7546 108.121 51.0968C107.831 51.439 107.676 51.8746 107.683 52.3227Z" fill="#0157FF"/>
<g opacity="0.3">
<path opacity="0.3" d="M107.683 52.3227L108.233 79.8153C108.241 80.197 108.401 80.5598 108.677 80.8241C108.952 81.0883 109.322 81.2325 109.703 81.2249V81.2249C110.075 81.2165 110.428 81.0653 110.691 80.8028C110.953 80.5402 111.105 80.1865 111.113 79.8153C111.169 74.8628 111.353 58.2009 111.381 52.2946C111.382 52.028 111.325 51.7645 111.215 51.522C111.104 51.2794 110.942 51.0637 110.741 50.8896C110.539 50.7155 110.302 50.5871 110.046 50.5133C109.789 50.4395 109.52 50.422 109.257 50.462C108.814 50.5291 108.41 50.7546 108.121 51.0968C107.831 51.439 107.676 51.8746 107.683 52.3227Z" fill="black"/>
</g>
<path d="M108.532 2.03164C108.612 2.12562 107.7 3.00899 106.37 4.55958C105.703 5.33018 104.961 6.28873 104.176 7.37885C103.342 8.57504 102.573 9.81578 101.874 11.0956C101.192 12.383 100.582 13.7069 100.046 15.0613C99.576 16.3159 99.1766 17.4671 98.8994 18.4492C98.3402 20.4132 98.1053 21.6631 97.9596 21.6443C97.814 21.6255 97.9079 20.3475 98.3402 18.3129C98.5992 17.1239 98.935 15.953 99.3458 14.8076C99.8546 13.4045 100.461 12.0385 101.159 10.7197C101.877 9.41486 102.681 8.1591 103.565 6.96066C104.295 5.98617 105.088 5.06013 105.938 4.18838C107.418 2.68947 108.471 1.96116 108.532 2.03164Z" fill="white"/>
<path d="M95.7881 53.1689C95.8633 53.2864 94.5617 54.1087 92.748 55.8097L92.0479 56.4769C91.8036 56.7118 91.578 56.9796 91.3243 57.2381C90.8121 57.7549 90.3329 58.3658 89.8113 58.9907C88.7224 60.3802 87.7556 61.8611 86.9215 63.417C86.1085 64.9858 85.4294 66.6205 84.8917 68.3037C84.6708 69.0837 84.4218 69.8261 84.2996 70.5356C84.2245 70.8927 84.1352 71.231 84.0788 71.5646C84.0224 71.8983 83.9707 72.2131 83.9237 72.5044C83.5572 74.9525 83.5901 76.4983 83.4539 76.503C83.3975 76.503 83.3458 76.1224 83.2988 75.4176C83.2988 75.2391 83.2753 75.0417 83.2659 74.8303C83.2565 74.6188 83.2659 74.3839 83.2659 74.1349C83.2695 73.5681 83.3025 73.002 83.3646 72.4386C83.3975 72.1238 83.4351 71.7949 83.4726 71.4519C83.5102 71.1089 83.5901 70.7564 83.6512 70.3946C83.7687 69.6569 83.9801 68.891 84.1916 68.0828C85.1889 64.5777 86.9096 61.3204 89.2427 58.5208C89.7489 57.9117 90.2852 57.3284 90.8497 56.7729C91.1128 56.5145 91.3619 56.2513 91.6203 56.0258L92.3721 55.3821C92.8029 55.0122 93.253 54.6656 93.7207 54.3436C93.9227 54.198 94.1107 54.057 94.2892 53.9395L94.792 53.6388C95.4263 53.2958 95.7552 53.122 95.7881 53.1689Z" fill="white"/>
<path d="M75.5679 142.813C74.9358 142.454 74.4289 141.911 74.1154 141.255C73.8019 140.599 73.697 139.864 73.8148 139.147C73.9326 138.43 74.2674 137.766 74.7742 137.245C75.2809 136.724 75.9351 136.372 76.6486 136.234C77.9361 135.981 79.5478 136.347 80.3559 135.295C81.0936 134.355 80.5392 133.114 80.8634 131.611C81.1876 130.107 82.4798 129.398 83.9035 129.416C84.6173 129.458 85.3088 129.68 85.9136 130.061C86.5184 130.442 87.0167 130.97 87.3618 131.597C88.124 132.989 88.4683 134.571 88.3533 136.154C87.9727 139.401 86.2388 141.065 84.0821 142.441C81.9253 143.818 77.8421 144.133 75.5679 142.784" fill="#0157FF"/>
<g opacity="0.8">
<path opacity="0.8" d="M75.5601 142.811C74.928 142.453 74.4211 141.909 74.1076 141.254C73.7941 140.598 73.6892 139.863 73.807 139.146C73.9248 138.429 74.2596 137.765 74.7663 137.244C75.2731 136.723 75.9273 136.371 76.6408 136.233C77.9283 135.979 79.5399 136.346 80.3481 135.293C81.0858 134.354 80.5314 133.113 80.8556 131.61C81.1798 130.106 82.472 129.396 83.8957 129.415C84.6094 129.457 85.301 129.678 85.9058 130.06C86.5106 130.441 87.0089 130.969 87.354 131.595C88.1162 132.988 88.4605 134.57 88.3454 136.153C87.9648 139.4 86.231 141.064 84.0743 142.44C81.9175 143.817 77.8343 144.132 75.5601 142.783" fill="white"/>
</g>
<path d="M128.279 116.785C128.802 115.784 129.62 114.966 130.621 114.442C131.622 113.918 132.76 113.712 133.882 113.853C135.003 113.993 136.055 114.473 136.896 115.228C137.737 115.984 138.327 116.978 138.588 118.078C139.058 120.075 138.588 122.602 140.246 123.81C141.755 124.905 143.662 123.96 146.031 124.374C148.399 124.787 149.583 126.761 149.635 128.988C149.686 131.215 148.324 133.33 146.439 134.514C144.314 135.786 141.867 136.419 139.391 136.337C134.302 135.938 131.601 133.33 129.322 130.05C127.043 126.77 126.31 120.413 128.279 116.785" fill="#0157FF"/>
<g opacity="0.8">
<path opacity="0.8" d="M128.279 116.785C128.802 115.784 129.62 114.966 130.621 114.442C131.622 113.918 132.76 113.712 133.882 113.853C135.003 113.993 136.055 114.473 136.896 115.228C137.737 115.984 138.327 116.978 138.588 118.078C139.058 120.075 138.588 122.602 140.246 123.81C141.755 124.905 143.662 123.96 146.031 124.374C148.399 124.787 149.583 126.761 149.635 128.988C149.686 131.215 148.324 133.33 146.439 134.514C144.314 135.786 141.867 136.419 139.391 136.337C134.302 135.938 131.601 133.33 129.322 130.05C127.043 126.77 126.31 120.413 128.279 116.785" fill="white"/>
</g>
<path d="M90.3082 110.123C89.7418 110.414 89.2666 110.856 88.935 111.399C88.6034 111.943 88.4282 112.568 88.4287 113.205C88.4523 113.913 88.7036 114.594 89.1452 115.147C89.5867 115.7 90.195 116.096 90.8797 116.276C91.5643 116.456 92.2888 116.411 92.9454 116.146C93.602 115.881 94.1557 115.412 94.5243 114.808C94.8928 114.203 95.0565 113.496 94.9911 112.791C94.9256 112.086 94.6345 111.421 94.1609 110.895C93.6874 110.369 93.0567 110.009 92.3626 109.87C91.6685 109.731 90.948 109.82 90.3082 110.123" fill="#0157FF"/>
<g opacity="0.8">
<path opacity="0.8" d="M90.316 110.124C89.7496 110.415 89.2744 110.857 88.9428 111.401C88.6112 111.944 88.436 112.569 88.4365 113.206C88.4601 113.914 88.7114 114.595 89.153 115.148C89.5946 115.701 90.2029 116.097 90.8875 116.277C91.5722 116.457 92.2966 116.412 92.9532 116.147C93.6098 115.882 94.1635 115.413 94.5321 114.809C94.9006 114.204 95.0643 113.497 94.9989 112.792C94.9334 112.087 94.6423 111.422 94.1687 110.896C93.6952 110.37 93.0645 110.01 92.3704 109.871C91.6763 109.732 90.9558 109.821 90.316 110.124" fill="white"/>
</g>
<path d="M140.272 149.527C139.99 149.674 139.753 149.895 139.587 150.167C139.421 150.439 139.333 150.75 139.332 151.069C139.343 151.424 139.469 151.766 139.69 152.044C139.911 152.322 140.216 152.521 140.56 152.611C140.903 152.702 141.267 152.679 141.596 152.547C141.926 152.414 142.204 152.179 142.389 151.875C142.574 151.572 142.656 151.217 142.623 150.863C142.59 150.51 142.444 150.176 142.206 149.912C141.968 149.648 141.651 149.468 141.303 149.399C140.954 149.33 140.593 149.375 140.272 149.527" fill="#0157FF"/>
<g opacity="0.8">
<path opacity="0.8" d="M140.264 149.526C139.982 149.673 139.745 149.894 139.579 150.166C139.414 150.437 139.326 150.749 139.324 151.067C139.336 151.423 139.461 151.764 139.682 152.042C139.904 152.32 140.209 152.52 140.552 152.61C140.896 152.701 141.259 152.678 141.589 152.546C141.918 152.413 142.196 152.177 142.381 151.874C142.566 151.571 142.648 151.216 142.615 150.862C142.582 150.509 142.436 150.175 142.198 149.911C141.96 149.647 141.643 149.467 141.295 149.398C140.946 149.329 140.585 149.374 140.264 149.526" fill="white"/>
</g>
<path d="M127.177 116.665H97.9697C92.8471 116.665 88.6943 120.818 88.6943 125.941V127.242C88.6943 132.365 92.8471 136.518 97.9697 136.518H127.177C132.3 136.518 136.453 132.365 136.453 127.242V125.941C136.453 120.818 132.3 116.665 127.177 116.665Z" fill="#0157FF"/>
<path d="M102.975 127.905L103.299 127.186C103.698 127.463 104.171 127.614 104.657 127.619C105.221 127.619 105.451 127.431 105.451 127.177C105.451 126.406 103.055 126.933 103.055 125.405C103.055 124.705 103.624 124.123 104.794 124.123C105.287 124.115 105.774 124.24 106.203 124.484L105.912 125.208C105.565 125.006 105.172 124.896 104.77 124.889C104.201 124.889 103.985 125.1 103.985 125.358C103.985 126.115 106.382 125.593 106.382 127.106C106.382 127.792 105.808 128.384 104.634 128.384C104.045 128.395 103.467 128.228 102.975 127.905V127.905Z" fill="white"/>
<path d="M107.844 124.968H106.523V124.193H110.113V124.968H108.798V128.313H107.858L107.844 124.968Z" fill="white"/>
<path d="M113.13 127.411H111.218L110.856 128.295H109.879L111.711 124.174H112.651L114.493 128.295H113.492L113.13 127.411ZM112.83 126.688L112.177 125.109L111.523 126.688H112.83Z" fill="white"/>
<path d="M117.554 128.314L116.755 127.162H115.881V128.314H114.941V124.193H116.727C117.826 124.193 118.512 124.761 118.512 125.687C118.523 125.965 118.448 126.239 118.296 126.472C118.145 126.705 117.925 126.886 117.666 126.989L118.606 128.314H117.554ZM116.656 124.968H115.881V126.406H116.656C117.239 126.406 117.535 126.133 117.535 125.687C117.535 125.241 117.239 124.968 116.656 124.968Z" fill="white"/>
<path d="M120.044 124.968H118.728V124.193H122.318V124.968H120.998V128.314H120.058L120.044 124.968Z" fill="white"/>
</svg>
